M48
INCH
T01C0.022
T02C0.028
T03C0.0354
T04C0.0508
T05C0.0512
T06C0.0551
T07C0.185
%
T01
X+015705Y+023703
X+018142Y+024810
X+018142Y+021810
X+015705Y+020203
X+012705Y+020203
X+012705Y+016703
X+015705Y+016703
X+015705Y+013203
X+012705Y+013203
X+021367Y+018979
X+024367Y+018979
X+030028Y+020948
X+033028Y+020948
X+033028Y+016223
X+030028Y+016223
X+012705Y+023703
T02
X+036812Y+021033
X+035812Y+021033
X+035753Y+016223
X+036753Y+016223
T03
X+016642Y+030109
X+016642Y+029109
X+019642Y+029109
X+019642Y+030109
X+020186Y+024810
X+021186Y+024810
X+022186Y+024810
X+023186Y+024810
X+023186Y+021810
X+022186Y+021810
X+021186Y+021810
X+020186Y+021810
T04
X+019717Y+015042
X+019717Y+014042
X+019717Y+013042
T05
X+023064Y+029609
X+025032Y+029609
X+028969Y+029609
X+030938Y+029609
X+034875Y+029609
X+036843Y+029609
X+035268Y+006381
X+033300Y+006381
X+029363Y+006381
X+027394Y+006381
X+023457Y+006381
X+021489Y+006381
X+017552Y+006381
X+015583Y+006381
T06
X+008284Y+009239
X+008284Y+010892
X+008284Y+012546
X+008284Y+014199
X+008284Y+015853
X+008284Y+017507
X+008284Y+019160
X+008284Y+020814
X+008284Y+022467
X+008284Y+024121
X+008284Y+025774
X+008284Y+027428
X+006119Y+027428
X+006119Y+025774
X+006119Y+024121
X+006119Y+022467
X+006119Y+020814
X+006119Y+019160
X+006119Y+017507
X+006119Y+015853
X+006119Y+014199
X+006119Y+012546
X+006119Y+010892
X+006119Y+009239
T07
X+008119Y+007442
X+008119Y+029260
T00
M30
