G04 DipTrace 4.0.0.5*
G04 1 - Top.gbr*
%MOIN*%
G04 #@! TF.FileFunction,Copper,L1,Top*
G04 #@! TF.Part,Single*
G04 #@! TA.AperFunction,Conductor*
%ADD13C,0.012992*%
G04 #@! TA.AperFunction,CopperBalancing*
%ADD14C,0.025*%
G04 #@! TA.AperFunction,ComponentPad*
%ADD15C,0.05*%
%ADD16R,0.05X0.05*%
%ADD17R,0.076378X0.076378*%
%ADD18C,0.076378*%
%ADD19C,0.05*%
%ADD20R,0.059055X0.059055*%
%ADD21C,0.059055*%
%ADD22C,0.070866*%
%ADD23C,0.088583*%
%ADD24C,0.059055*%
%FSLAX26Y26*%
G04*
G70*
G90*
G75*
G01*
G04 Top*
%LPD*%
X611869Y1089239D2*
D13*
X713444Y987664D1*
X1208719D1*
X1558325Y638058D1*
X2739428D2*
X2820333Y718963D1*
X3249073D1*
X3329979Y638058D1*
X2148877D2*
X2229786Y557148D1*
X2658518D1*
X2739428Y638058D1*
X1558325D2*
X1613247Y692979D1*
X2093955D1*
X2148877Y638058D1*
X1270530Y2020341D2*
X1431160Y2180971D1*
X1814231D1*
X828404Y1254593D2*
X894152Y1320341D1*
X1270530D1*
X1814231Y2180971D2*
X1863251Y2229991D1*
X2169542D1*
X2218562Y2180971D1*
X1270530Y1320341D2*
X1354388Y1404199D1*
X1971711D1*
X611869Y2412073D2*
X828404D1*
X1664231Y2910892D2*
X1714231Y2960892D1*
X2306357D1*
X2936278Y638058D2*
X3017188Y557148D1*
X3445920D1*
X3526829Y638058D1*
X828404Y1750656D2*
X611869D1*
X828404Y2081365D2*
X611869D1*
X1570530Y2370341D2*
X1907932D1*
X2018562Y2480971D1*
X828404Y2412073D2*
X831160Y2414829D1*
X1526042D1*
X1570530Y2370341D1*
X3093759Y2960892D2*
X3174664Y3041798D1*
X3603404D1*
X3684310Y2960892D1*
X2306357D2*
X2387262Y2879987D1*
X3012853D1*
X3093759Y2960892D1*
X611869Y2742782D2*
X828404D1*
X611869Y1419948D2*
X675648Y1483727D1*
X1031390D1*
X1109538Y1561877D1*
X3614822D1*
X3675255Y1622310D1*
X3681247Y2103310D2*
X3377458Y1799521D1*
X1015121D1*
X864681Y1649081D1*
X675648D1*
X611869Y1585302D1*
X828404Y2246719D2*
X892184Y2310499D1*
X2837066D1*
X3487459Y2960892D1*
X3581247Y2103310D2*
X3572688Y2094751D1*
X3302814D1*
X2218562Y2480971D2*
X2143558Y2555975D1*
X1889235D1*
X1814231Y2480971D1*
X3575255Y1622310D2*
X3302814D1*
X451287Y1269980D2*
D14*
X742888D1*
X451287Y1245112D2*
X756327D1*
X451287Y1220243D2*
X764670D1*
X451287Y1195374D2*
X788174D1*
X451287Y1170505D2*
X892094D1*
X451287Y1145636D2*
X784083D1*
X872729D2*
X929396D1*
X451287Y1120768D2*
X763162D1*
X893649D2*
X966698D1*
X451287Y1095899D2*
X756004D1*
X900808D2*
X1004017D1*
X451287Y1071030D2*
X758085D1*
X898727D2*
X1041319D1*
X451287Y1046161D2*
X770447D1*
X886347D2*
X3846475D1*
X451287Y1021293D2*
X808197D1*
X848615D2*
X3846475D1*
X451287Y996424D2*
X3846475D1*
X451287Y971555D2*
X557815D1*
X665928D2*
X774358D1*
X882454D2*
X3846475D1*
X451287Y946686D2*
X542959D1*
X680785D2*
X759484D1*
X897310D2*
X3846475D1*
X451287Y921818D2*
X539191D1*
X684552D2*
X755717D1*
X901095D2*
X3846475D1*
X451287Y896949D2*
X544520D1*
X679206D2*
X761063D1*
X895749D2*
X3846475D1*
X451287Y872080D2*
X561978D1*
X661766D2*
X778503D1*
X878309D2*
X3846475D1*
X451287Y847211D2*
X750872D1*
X872873D2*
X3846475D1*
X451287Y822343D2*
X720335D1*
X903392D2*
X3846475D1*
X451287Y797474D2*
X703577D1*
X920168D2*
X3846475D1*
X451287Y772605D2*
X694373D1*
X929354D2*
X3846475D1*
X451287Y747736D2*
X690981D1*
X932763D2*
X3846475D1*
X451287Y722867D2*
X692865D1*
X930879D2*
X3846475D1*
X451287Y697999D2*
X700311D1*
X923415D2*
X1739571D1*
X1770785D2*
X2330117D1*
X2361331D2*
X2920663D1*
X2951895D2*
X3511209D1*
X3542441D2*
X3846475D1*
X451287Y673130D2*
X714629D1*
X909116D2*
X1702323D1*
X1808014D2*
X2292887D1*
X2398578D2*
X2883433D1*
X2989124D2*
X3473980D1*
X3579671D2*
X3846475D1*
X451287Y648261D2*
X739927D1*
X883799D2*
X1692168D1*
X1818188D2*
X2282714D1*
X2408734D2*
X2873278D1*
X2999280D2*
X3463824D1*
X3589826D2*
X3846475D1*
X451287Y623392D2*
X1693101D1*
X1817255D2*
X2283647D1*
X2407801D2*
X2874193D1*
X2999298D2*
X3463806D1*
X3588911D2*
X3846475D1*
X451287Y598524D2*
X1705750D1*
X1804605D2*
X2296296D1*
X2395152D2*
X2886860D1*
X3024165D2*
X3438939D1*
X3576262D2*
X3846475D1*
X451287Y573655D2*
X2952331D1*
X3510773D2*
X3846475D1*
X451287Y548786D2*
X2977199D1*
X3485905D2*
X3846475D1*
X451287Y523917D2*
X3846475D1*
X451287Y499049D2*
X3846475D1*
X451287Y474180D2*
X3846475D1*
X898021Y914724D2*
X896229Y905716D1*
X893278Y897018D1*
X889216Y888781D1*
X884114Y881143D1*
X878058Y874237D1*
X871153Y868181D1*
X863517Y863078D1*
X855279Y859015D1*
X848714Y856786D1*
X850212Y856287D1*
X858781Y852979D1*
X867068Y849017D1*
X875023Y844424D1*
X882598Y839229D1*
X889748Y833462D1*
X896429Y827159D1*
X902602Y820356D1*
X908229Y813096D1*
X913277Y805422D1*
X917714Y797380D1*
X921515Y789018D1*
X924657Y780386D1*
X927121Y771537D1*
X928891Y762524D1*
X929957Y753400D1*
X930314Y744220D1*
X929958Y735043D1*
X928891Y725920D1*
X927121Y716907D1*
X924658Y708058D1*
X921517Y699426D1*
X917716Y691064D1*
X913278Y683021D1*
X908231Y675347D1*
X902604Y668087D1*
X896431Y661284D1*
X889750Y654981D1*
X882600Y649214D1*
X875025Y644018D1*
X867071Y639426D1*
X858784Y635463D1*
X850215Y632155D1*
X841415Y629520D1*
X832438Y627575D1*
X823337Y626332D1*
X814167Y625798D1*
X804983Y625976D1*
X795841Y626865D1*
X786795Y628460D1*
X777900Y630751D1*
X769209Y633725D1*
X760775Y637363D1*
X752648Y641643D1*
X744877Y646541D1*
X737509Y652026D1*
X730588Y658066D1*
X724156Y664624D1*
X718252Y671660D1*
X712910Y679133D1*
X708164Y686997D1*
X704042Y695205D1*
X700567Y703709D1*
X697763Y712455D1*
X695644Y721393D1*
X694225Y730468D1*
X693513Y739626D1*
Y748812D1*
X694225Y757970D1*
X695644Y767045D1*
X697762Y775983D1*
X700566Y784730D1*
X704040Y793233D1*
X708163Y801441D1*
X712909Y809306D1*
X718250Y816779D1*
X724154Y823815D1*
X730586Y830373D1*
X737507Y836413D1*
X744874Y841898D1*
X752645Y846796D1*
X760772Y851077D1*
X769206Y854715D1*
X777897Y857689D1*
X786792Y859980D1*
X796008Y861592D1*
X793300Y863073D1*
X785663Y868175D1*
X778757Y874230D1*
X772701Y881135D1*
X767597Y888772D1*
X763534Y897009D1*
X760582Y905706D1*
X758789Y914714D1*
X758188Y923880D1*
X758788Y933045D1*
X760579Y942053D1*
X763531Y950751D1*
X767592Y958988D1*
X772695Y966626D1*
X778750Y973532D1*
X785655Y979588D1*
X793292Y984691D1*
X801529Y988754D1*
X810226Y991707D1*
X819234Y993500D1*
X828399Y994101D1*
X837564Y993501D1*
X846573Y991710D1*
X855270Y988758D1*
X863508Y984696D1*
X871145Y979594D1*
X878051Y973539D1*
X884108Y966634D1*
X889211Y958997D1*
X893274Y950760D1*
X896227Y942063D1*
X898019Y933055D1*
X898621Y923885D1*
X898021Y914724D1*
Y1080079D2*
X896229Y1071070D1*
X893278Y1062373D1*
X889216Y1054135D1*
X884114Y1046498D1*
X878058Y1039592D1*
X871153Y1033535D1*
X863517Y1028432D1*
X855279Y1024369D1*
X846582Y1021416D1*
X837574Y1019624D1*
X828409Y1019022D1*
X819244Y1019622D1*
X810236Y1021414D1*
X801538Y1024365D1*
X793300Y1028427D1*
X785663Y1033529D1*
X778757Y1039585D1*
X772701Y1046490D1*
X767597Y1054126D1*
X763534Y1062364D1*
X760582Y1071061D1*
X758789Y1080069D1*
X758188Y1089234D1*
X758788Y1098399D1*
X760579Y1107407D1*
X763531Y1116105D1*
X767592Y1124343D1*
X772695Y1131980D1*
X778750Y1138886D1*
X785655Y1144942D1*
X793292Y1150046D1*
X801529Y1154109D1*
X810226Y1157062D1*
X819234Y1158854D1*
X828399Y1159455D1*
X837564Y1158855D1*
X846573Y1157064D1*
X855270Y1154112D1*
X863508Y1150051D1*
X871145Y1144948D1*
X878051Y1138893D1*
X884108Y1131988D1*
X889211Y1124351D1*
X893274Y1116114D1*
X896227Y1107417D1*
X898019Y1098409D1*
X898621Y1089239D1*
X898021Y1080079D1*
X1066212Y1058629D2*
X3848975Y1058632D1*
X3848971Y453707D1*
X448778Y453699D1*
X448775Y1294849D1*
X708090Y1294845D1*
X758618Y1261167D1*
X758188Y1254588D1*
X758789Y1245423D1*
X760582Y1236415D1*
X763534Y1227718D1*
X767597Y1219481D1*
X772701Y1211844D1*
X778757Y1204939D1*
X785663Y1198884D1*
X793300Y1193781D1*
X801538Y1189720D1*
X810236Y1186768D1*
X819244Y1184977D1*
X828409Y1184377D1*
X837574Y1184978D1*
X846582Y1186770D1*
X855279Y1189723D1*
X861305Y1192695D1*
X959841Y1127011D1*
X1059266Y1060728D1*
X1062073Y1059331D1*
X1066212Y1058629D1*
X681485Y914724D2*
X679694Y905716D1*
X676742Y897018D1*
X672681Y888781D1*
X667578Y881143D1*
X661523Y874237D1*
X654618Y868181D1*
X646981Y863078D1*
X638744Y859015D1*
X630047Y856062D1*
X621039Y854269D1*
X611874Y853668D1*
X602709Y854268D1*
X593700Y856059D1*
X585003Y859011D1*
X576765Y863073D1*
X569128Y868175D1*
X562222Y874230D1*
X556165Y881135D1*
X551062Y888772D1*
X546999Y897009D1*
X544046Y905706D1*
X542254Y914714D1*
X541652Y923880D1*
X542252Y933045D1*
X544044Y942053D1*
X546995Y950751D1*
X551057Y958988D1*
X556159Y966626D1*
X562215Y973532D1*
X569120Y979588D1*
X576756Y984691D1*
X584993Y988754D1*
X593691Y991707D1*
X602699Y993500D1*
X611864Y994101D1*
X621029Y993501D1*
X630037Y991710D1*
X638735Y988758D1*
X646973Y984696D1*
X654610Y979594D1*
X661516Y973539D1*
X667572Y966634D1*
X672676Y958997D1*
X676738Y950760D1*
X679691Y942063D1*
X681484Y933055D1*
X682085Y923885D1*
X681485Y914724D1*
X1815848Y628906D2*
X1813806Y619965D1*
X1810455Y611429D1*
X1805868Y603487D1*
X1800150Y596318D1*
X1793426Y590081D1*
X1785849Y584916D1*
X1777586Y580938D1*
X1768822Y578236D1*
X1759754Y576871D1*
X1750583Y576872D1*
X1741515Y578239D1*
X1732752Y580944D1*
X1724491Y584924D1*
X1716914Y590090D1*
X1710192Y596329D1*
X1704475Y603499D1*
X1699891Y611442D1*
X1696541Y619979D1*
X1694502Y628920D1*
X1693818Y638065D1*
X1694504Y647210D1*
X1696546Y656150D1*
X1699897Y664687D1*
X1704483Y672628D1*
X1710202Y679797D1*
X1716925Y686034D1*
X1724503Y691199D1*
X1732766Y695177D1*
X1741529Y697879D1*
X1750598Y699245D1*
X1759768Y699244D1*
X1768836Y697876D1*
X1777599Y695172D1*
X1785861Y691192D1*
X1793438Y686025D1*
X1800160Y679787D1*
X1805876Y672616D1*
X1810461Y664674D1*
X1813810Y656137D1*
X1815850Y647196D1*
X1816534Y638058D1*
X1815848Y628906D1*
X2406399D2*
X2404357Y619965D1*
X2401006Y611429D1*
X2396420Y603487D1*
X2390701Y596318D1*
X2383978Y590081D1*
X2376400Y584916D1*
X2368137Y580938D1*
X2359374Y578236D1*
X2350305Y576871D1*
X2341135Y576872D1*
X2332067Y578239D1*
X2323304Y580944D1*
X2315042Y584924D1*
X2307465Y590090D1*
X2300743Y596329D1*
X2295026Y603499D1*
X2290442Y611442D1*
X2287093Y619979D1*
X2285053Y628920D1*
X2284369Y638065D1*
X2285055Y647210D1*
X2287097Y656150D1*
X2290448Y664687D1*
X2295034Y672628D1*
X2300753Y679797D1*
X2307476Y686034D1*
X2315054Y691199D1*
X2323317Y695177D1*
X2332081Y697879D1*
X2341149Y699245D1*
X2350319Y699244D1*
X2359388Y697876D1*
X2368150Y695172D1*
X2376412Y691192D1*
X2383989Y686025D1*
X2390711Y679787D1*
X2396428Y672616D1*
X2401012Y664674D1*
X2404361Y656137D1*
X2406401Y647196D1*
X2407085Y638058D1*
X2406399Y628906D1*
X2999776Y529801D2*
X3008124Y526020D1*
X3017188Y524727D1*
X3445894D1*
X3452954Y525499D1*
X3461522Y528728D1*
X3468845Y534223D1*
X3512938Y578311D1*
X3513169Y578239D1*
X3522237Y576872D1*
X3531408Y576871D1*
X3540476Y578236D1*
X3549239Y580938D1*
X3557502Y584916D1*
X3565080Y590081D1*
X3571803Y596318D1*
X3577522Y603487D1*
X3582108Y611429D1*
X3585460Y619965D1*
X3587501Y628906D1*
X3588188Y638058D1*
X3587503Y647196D1*
X3585464Y656137D1*
X3582114Y664674D1*
X3577530Y672616D1*
X3571813Y679787D1*
X3565091Y686025D1*
X3557515Y691192D1*
X3549253Y695172D1*
X3540490Y697876D1*
X3531422Y699244D1*
X3522251Y699245D1*
X3513183Y697879D1*
X3504419Y695177D1*
X3496156Y691199D1*
X3488579Y686034D1*
X3481855Y679797D1*
X3476137Y672628D1*
X3471551Y664687D1*
X3468199Y656150D1*
X3466158Y647210D1*
X3465471Y638065D1*
X3466155Y628920D1*
X3467069Y624148D1*
X3432499Y589570D1*
X3030618Y589569D1*
X2995895Y624287D1*
X2996950Y628906D1*
X2997636Y638058D1*
X2996952Y647196D1*
X2994913Y656137D1*
X2991563Y664674D1*
X2986979Y672616D1*
X2981262Y679787D1*
X2974540Y686025D1*
X2966964Y691192D1*
X2958702Y695172D1*
X2949939Y697876D1*
X2940871Y699244D1*
X2931700Y699245D1*
X2922632Y697879D1*
X2913868Y695177D1*
X2905605Y691199D1*
X2898028Y686034D1*
X2891304Y679797D1*
X2885586Y672628D1*
X2880999Y664687D1*
X2877648Y656150D1*
X2875606Y647210D1*
X2874920Y638065D1*
X2875604Y628920D1*
X2877644Y619979D1*
X2880993Y611442D1*
X2885578Y603499D1*
X2891295Y596329D1*
X2898016Y590090D1*
X2905593Y584924D1*
X2913855Y580944D1*
X2922618Y578239D1*
X2931686Y576872D1*
X2940856Y576871D1*
X2949925Y578236D1*
X2950173Y578313D1*
X2994243Y534243D1*
X2999776Y529801D1*
X451287Y3120374D2*
X3846475D1*
X451287Y3095505D2*
X3846475D1*
X451287Y3070636D2*
X3157355D1*
X3620722D2*
X3846475D1*
X451287Y3045768D2*
X1918615D1*
X2009845D2*
X3130281D1*
X3647779D2*
X3846475D1*
X451287Y3020899D2*
X738438D1*
X885306D2*
X1907186D1*
X2021274D2*
X2291057D1*
X2321661D2*
X2487900D1*
X2518521D2*
X2881603D1*
X2912225D2*
X3078446D1*
X3699613D2*
X3846475D1*
X451287Y2996030D2*
X713804D1*
X909923D2*
X1908299D1*
X2020162D2*
X2253558D1*
X2359160D2*
X2450401D1*
X2556002D2*
X2844104D1*
X2949706D2*
X3040965D1*
X3177247D2*
X3434650D1*
X3540252D2*
X3600812D1*
X3737112D2*
X3846475D1*
X451287Y2971161D2*
X699845D1*
X923882D2*
X1676146D1*
X2369351D2*
X2440210D1*
X2566193D2*
X2833913D1*
X2959897D2*
X3030774D1*
X3156757D2*
X3424459D1*
X3550461D2*
X3621320D1*
X3747304D2*
X3846475D1*
X451287Y2946293D2*
X692668D1*
X931077D2*
X1619054D1*
X2369315D2*
X2441107D1*
X2565296D2*
X2834810D1*
X2959000D2*
X3030810D1*
X3155860D2*
X3424513D1*
X3549564D2*
X3622217D1*
X3746406D2*
X3846475D1*
X451287Y2921424D2*
X691017D1*
X932727D2*
X1607284D1*
X1723112D2*
X1907294D1*
X2021167D2*
X2256878D1*
X2394183D2*
X2453720D1*
X2552683D2*
X2847424D1*
X2946386D2*
X3005942D1*
X3143229D2*
X3399645D1*
X3536932D2*
X3634830D1*
X3733793D2*
X3846475D1*
X451287Y2896555D2*
X694660D1*
X929085D2*
X1608163D1*
X1720296D2*
X1908155D1*
X2020305D2*
X2322348D1*
X3077776D2*
X3374778D1*
X3471480D2*
X3846475D1*
X451287Y2871686D2*
X704133D1*
X919594D2*
X1622517D1*
X1705942D2*
X1922509D1*
X2005952D2*
X2347216D1*
X3052909D2*
X3349910D1*
X3446612D2*
X3846475D1*
X451287Y2846818D2*
X721322D1*
X902405D2*
X3325042D1*
X3421726D2*
X3846475D1*
X451287Y2821949D2*
X752864D1*
X870881D2*
X3300157D1*
X3396859D2*
X3846475D1*
X451287Y2797080D2*
X564849D1*
X658895D2*
X781392D1*
X875420D2*
X3275289D1*
X3371991D2*
X3846475D1*
X451287Y2772211D2*
X545615D1*
X894654D2*
X3250421D1*
X3347123D2*
X3846475D1*
X451287Y2747343D2*
X539299D1*
X900970D2*
X3225553D1*
X3322255D2*
X3846475D1*
X451287Y2722474D2*
X542152D1*
X898117D2*
X3200686D1*
X3297388D2*
X3846475D1*
X451287Y2697605D2*
X555608D1*
X668117D2*
X772151D1*
X884661D2*
X3175818D1*
X3272520D2*
X3846475D1*
X451287Y2672736D2*
X604483D1*
X619261D2*
X821008D1*
X835804D2*
X3150950D1*
X3247652D2*
X3846475D1*
X451287Y2647867D2*
X3126082D1*
X3222784D2*
X3846475D1*
X451287Y2622999D2*
X555949D1*
X667794D2*
X772492D1*
X884320D2*
X3101215D1*
X3197917D2*
X3846475D1*
X451287Y2598130D2*
X542277D1*
X681466D2*
X758803D1*
X897991D2*
X3076347D1*
X3173049D2*
X3846475D1*
X451287Y2573261D2*
X539281D1*
X684463D2*
X755806D1*
X901006D2*
X1858168D1*
X2174625D2*
X3051479D1*
X3148181D2*
X3846475D1*
X451287Y2548392D2*
X545435D1*
X678308D2*
X761978D1*
X894834D2*
X1833301D1*
X2199493D2*
X3026611D1*
X3123313D2*
X3846475D1*
X451287Y2523524D2*
X564364D1*
X659362D2*
X780907D1*
X875905D2*
X1783763D1*
X1905135D2*
X1980498D1*
X2376510D2*
X3001744D1*
X3098446D2*
X3846475D1*
X451287Y2498655D2*
X1763972D1*
X1880267D2*
X1963506D1*
X2376510D2*
X2976876D1*
X3073578D2*
X3846475D1*
X451287Y2473786D2*
X575865D1*
X647861D2*
X792408D1*
X864404D2*
X1761317D1*
X1867152D2*
X1961084D1*
X2376510D2*
X2952008D1*
X3048710D2*
X3846475D1*
X451287Y2448917D2*
X549598D1*
X674146D2*
X766123D1*
X890671D2*
X1772154D1*
X1856297D2*
X1938154D1*
X2376510D2*
X2927140D1*
X3023842D2*
X3846475D1*
X451287Y2424049D2*
X540178D1*
X1565168D2*
X1913287D1*
X2009989D2*
X2902273D1*
X2998975D2*
X3846475D1*
X451287Y2399180D2*
X540340D1*
X1985121D2*
X2877405D1*
X2974089D2*
X3846475D1*
X451287Y2374311D2*
X550172D1*
X673572D2*
X766715D1*
X890097D2*
X1517269D1*
X1960253D2*
X2852519D1*
X2949221D2*
X3846475D1*
X451287Y2349442D2*
X577623D1*
X646120D2*
X794166D1*
X862646D2*
X1521593D1*
X1935385D2*
X2827652D1*
X2924354D2*
X3846475D1*
X451287Y2324573D2*
X857915D1*
X2899486D2*
X3846475D1*
X451287Y2299705D2*
X779831D1*
X2874618D2*
X3846475D1*
X451287Y2274836D2*
X761566D1*
X904863D2*
X3846475D1*
X451287Y2249967D2*
X755770D1*
X901042D2*
X3846475D1*
X451287Y2225098D2*
X759108D1*
X897704D2*
X1982471D1*
X2054646D2*
X2082480D1*
X2154638D2*
X2282481D1*
X2354638D2*
X3846475D1*
X451287Y2200230D2*
X773282D1*
X883530D2*
X1964063D1*
X2173064D2*
X2264054D1*
X2373065D2*
X3846475D1*
X451287Y2175361D2*
X1960887D1*
X2176222D2*
X2260897D1*
X2376223D2*
X3846475D1*
X451287Y2150492D2*
X597055D1*
X626689D2*
X813580D1*
X843232D2*
X1969732D1*
X2167395D2*
X2269742D1*
X2367395D2*
X3527824D1*
X3634663D2*
X3659590D1*
X3702915D2*
X3846475D1*
X451287Y2125623D2*
X554855D1*
X668889D2*
X771398D1*
X885414D2*
X2012650D1*
X2024483D2*
X2112659D1*
X2124477D2*
X2312660D1*
X2324474D2*
X2959813D1*
X3045822D2*
X3259805D1*
X3729523D2*
X3846475D1*
X451287Y2100755D2*
X541883D1*
X898386D2*
X2949747D1*
X3055887D2*
X3249739D1*
X3734601D2*
X3846475D1*
X451287Y2075886D2*
X539371D1*
X900898D2*
X2953013D1*
X3052622D2*
X3253005D1*
X3726652D2*
X3846475D1*
X451287Y2051017D2*
X546045D1*
X894224D2*
X1527388D1*
X1613684D2*
X2974220D1*
X3031396D2*
X3274230D1*
X3331406D2*
X3580609D1*
X3677311D2*
X3846475D1*
X451287Y2026148D2*
X565997D1*
X657747D2*
X782522D1*
X874272D2*
X1517430D1*
X1623624D2*
X3555742D1*
X3652444D2*
X3846475D1*
X451287Y2001280D2*
X1520803D1*
X1620250D2*
X3530874D1*
X3627576D2*
X3846475D1*
X451287Y1976411D2*
X790094D1*
X866718D2*
X1542280D1*
X1598792D2*
X3505988D1*
X3602690D2*
X3846475D1*
X451287Y1951542D2*
X765333D1*
X891461D2*
X3481120D1*
X3577823D2*
X3846475D1*
X451287Y1926673D2*
X756506D1*
X900306D2*
X2092151D1*
X2181192D2*
X2392161D1*
X2481184D2*
X3456253D1*
X3552955D2*
X3846475D1*
X451287Y1901804D2*
X757134D1*
X899660D2*
X2083396D1*
X2189948D2*
X2383405D1*
X2489940D2*
X3431385D1*
X3528087D2*
X3846475D1*
X451287Y1876936D2*
X767558D1*
X889236D2*
X2087755D1*
X2185588D2*
X2387765D1*
X2485580D2*
X3406517D1*
X3503219D2*
X3846475D1*
X451287Y1852067D2*
X796894D1*
X859918D2*
X2111977D1*
X2161366D2*
X2411969D1*
X2461376D2*
X3381650D1*
X3478352D2*
X3846475D1*
X451287Y1827198D2*
X995728D1*
X3453484D2*
X3846475D1*
X451287Y1802329D2*
X561834D1*
X661909D2*
X778359D1*
X878453D2*
X969586D1*
X3428616D2*
X3846475D1*
X451287Y1777461D2*
X544466D1*
X895803D2*
X944719D1*
X3403748D2*
X3846475D1*
X451287Y1752592D2*
X539173D1*
X901095D2*
X919833D1*
X1016535D2*
X3846475D1*
X451287Y1727723D2*
X542995D1*
X991667D2*
X3846475D1*
X451287Y1702854D2*
X557941D1*
X665803D2*
X774466D1*
X966799D2*
X1528841D1*
X1612230D2*
X3846475D1*
X451287Y1677986D2*
X658470D1*
X941932D2*
X1517681D1*
X1623372D2*
X3846475D1*
X451287Y1653117D2*
X591170D1*
X917064D2*
X1520104D1*
X1620950D2*
X2959759D1*
X3045857D2*
X3259769D1*
X3718309D2*
X3846475D1*
X451287Y1628248D2*
X553814D1*
X892196D2*
X1539373D1*
X1601698D2*
X2949730D1*
X3055887D2*
X3249739D1*
X3728339D2*
X3846475D1*
X451287Y1603379D2*
X541524D1*
X682220D2*
X758049D1*
X898745D2*
X2953031D1*
X3052586D2*
X3253041D1*
X3725037D2*
X3846475D1*
X451287Y1578510D2*
X539478D1*
X684247D2*
X756022D1*
X900790D2*
X1077813D1*
X3703740D2*
X3846475D1*
X451287Y1553642D2*
X546691D1*
X677035D2*
X763234D1*
X893578D2*
X1052945D1*
X3654938D2*
X3846475D1*
X451287Y1528773D2*
X567719D1*
X656024D2*
X784244D1*
X872550D2*
X1028077D1*
X1124780D2*
X1905105D1*
X2038319D2*
X3846475D1*
X451287Y1503904D2*
X647472D1*
X1099912D2*
X1905105D1*
X2038319D2*
X3846475D1*
X451287Y1479035D2*
X571433D1*
X1075044D2*
X1905105D1*
X2038319D2*
X3846475D1*
X451287Y1454167D2*
X548055D1*
X1047198D2*
X1905105D1*
X2038319D2*
X3846475D1*
X451287Y1429298D2*
X539783D1*
X683960D2*
X3846475D1*
X451287Y1404429D2*
X540896D1*
X682848D2*
X3846475D1*
X823747Y1379560D2*
X3846475D1*
X858573Y1354692D2*
X1530438D1*
X1610633D2*
X1929704D1*
X2013721D2*
X3846475D1*
X893380Y1329823D2*
X1518004D1*
X1623067D2*
X1910434D1*
X2032990D2*
X3846475D1*
X928206Y1304954D2*
X1519493D1*
X1621578D2*
X1905105D1*
X2038319D2*
X3846475D1*
X963014Y1280085D2*
X1536843D1*
X1604228D2*
X1909806D1*
X2033618D2*
X3846475D1*
X997839Y1255217D2*
X1927838D1*
X2015587D2*
X3846475D1*
X1032647Y1230348D2*
X3846475D1*
X1067472Y1205479D2*
X3846475D1*
X2035168Y1295045D2*
X2033220Y1286107D1*
X2030019Y1277537D1*
X2025631Y1269511D1*
X2020145Y1262190D1*
X2013674Y1255725D1*
X2006348Y1250247D1*
X1998317Y1245866D1*
X1989745Y1242674D1*
X1980805Y1240734D1*
X1971680Y1240085D1*
X1962556Y1240742D1*
X1953619Y1242691D1*
X1945049Y1245892D1*
X1937023Y1250280D1*
X1929702Y1255765D1*
X1923237Y1262237D1*
X1917758Y1269563D1*
X1913378Y1277594D1*
X1910185Y1286166D1*
X1908245Y1295106D1*
X1907597Y1304230D1*
X1908254Y1313354D1*
X1910203Y1322292D1*
X1913404Y1330862D1*
X1917792Y1338888D1*
X1923277Y1346209D1*
X1929749Y1352674D1*
X1937075Y1358152D1*
X1945105Y1362533D1*
X1953678Y1365725D1*
X1962617Y1367665D1*
X1971742Y1368314D1*
X1980866Y1367657D1*
X1989804Y1365708D1*
X1998373Y1362507D1*
X2006400Y1358119D1*
X2013720Y1352634D1*
X2020186Y1346162D1*
X2025664Y1338836D1*
X2030044Y1330805D1*
X2033237Y1322233D1*
X2035177Y1313293D1*
X2035825Y1304199D1*
X2035168Y1295045D1*
X1620629Y2011205D2*
X1618193Y2002406D1*
X1614224Y1994184D1*
X1608851Y1986802D1*
X1602247Y1980499D1*
X1594623Y1975476D1*
X1586225Y1971895D1*
X1577322Y1969871D1*
X1568201Y1969469D1*
X1559155Y1970703D1*
X1550475Y1973531D1*
X1542439Y1977865D1*
X1535306Y1983563D1*
X1529305Y1990444D1*
X1524629Y1998285D1*
X1521428Y2006836D1*
X1519806Y2015820D1*
X1519814Y2024950D1*
X1521452Y2033932D1*
X1524667Y2042477D1*
X1529357Y2050310D1*
X1535370Y2057180D1*
X1542513Y2062866D1*
X1550556Y2067186D1*
X1559241Y2069999D1*
X1568290Y2071217D1*
X1577410Y2070800D1*
X1586309Y2068760D1*
X1594701Y2065165D1*
X1602316Y2060129D1*
X1608910Y2053814D1*
X1614270Y2046423D1*
X1618224Y2038194D1*
X1620645Y2029391D1*
X1621455Y2020341D1*
X1620629Y2011205D1*
Y1661205D2*
X1618193Y1652406D1*
X1614224Y1644184D1*
X1608851Y1636802D1*
X1602247Y1630499D1*
X1594623Y1625476D1*
X1586225Y1621895D1*
X1577322Y1619871D1*
X1568201Y1619469D1*
X1559155Y1620703D1*
X1550475Y1623531D1*
X1542439Y1627865D1*
X1535306Y1633563D1*
X1529305Y1640444D1*
X1524629Y1648285D1*
X1521428Y1656836D1*
X1519806Y1665820D1*
X1519814Y1674950D1*
X1521452Y1683932D1*
X1524667Y1692477D1*
X1529357Y1700310D1*
X1535370Y1707180D1*
X1542513Y1712866D1*
X1550556Y1717186D1*
X1559241Y1719999D1*
X1568290Y1721217D1*
X1577410Y1720800D1*
X1586309Y1718760D1*
X1594701Y1715165D1*
X1602316Y1710129D1*
X1608910Y1703814D1*
X1614270Y1696423D1*
X1618224Y1688194D1*
X1620645Y1679391D1*
X1621455Y1670341D1*
X1620629Y1661205D1*
Y1311205D2*
X1618193Y1302406D1*
X1614224Y1294184D1*
X1608851Y1286802D1*
X1602247Y1280499D1*
X1594623Y1275476D1*
X1586225Y1271895D1*
X1577322Y1269871D1*
X1568201Y1269469D1*
X1559155Y1270703D1*
X1550475Y1273531D1*
X1542439Y1277865D1*
X1535306Y1283563D1*
X1529305Y1290444D1*
X1524629Y1298285D1*
X1521428Y1306836D1*
X1519806Y1315820D1*
X1519814Y1324950D1*
X1521452Y1333932D1*
X1524667Y1342477D1*
X1529357Y1350310D1*
X1535370Y1357180D1*
X1542513Y1362866D1*
X1550556Y1367186D1*
X1559241Y1369999D1*
X1568290Y1371217D1*
X1577410Y1370800D1*
X1586309Y1368760D1*
X1594701Y1365165D1*
X1602316Y1360129D1*
X1608910Y1353814D1*
X1614270Y1346423D1*
X1618224Y1338194D1*
X1620645Y1329391D1*
X1621455Y1320341D1*
X1620629Y1311205D1*
X3052913Y2085614D2*
X3050476Y2076815D1*
X3046508Y2068593D1*
X3041135Y2061212D1*
X3034530Y2054908D1*
X3026906Y2049885D1*
X3018508Y2046304D1*
X3009606Y2044280D1*
X3000485Y2043879D1*
X2991439Y2045112D1*
X2982758Y2047941D1*
X2974722Y2052274D1*
X2967589Y2057973D1*
X2961588Y2064853D1*
X2956912Y2072695D1*
X2953712Y2081245D1*
X2952090Y2090230D1*
X2952097Y2099360D1*
X2953735Y2108341D1*
X2956951Y2116886D1*
X2961640Y2124720D1*
X2967653Y2131590D1*
X2974796Y2137276D1*
X2982839Y2141595D1*
X2991525Y2144409D1*
X3000573Y2145627D1*
X3009693Y2145209D1*
X3018593Y2143170D1*
X3026984Y2139574D1*
X3034600Y2134538D1*
X3041193Y2128223D1*
X3046553Y2120832D1*
X3050507Y2112603D1*
X3052928Y2103800D1*
X3053739Y2094751D1*
X3052913Y2085614D1*
X2486771Y1888764D2*
X2484334Y1879965D1*
X2480366Y1871743D1*
X2474993Y1864361D1*
X2468389Y1858058D1*
X2460765Y1853035D1*
X2452367Y1849454D1*
X2443464Y1847430D1*
X2434343Y1847028D1*
X2425297Y1848262D1*
X2416616Y1851091D1*
X2408580Y1855424D1*
X2401447Y1861122D1*
X2395447Y1868003D1*
X2390771Y1875845D1*
X2387570Y1884395D1*
X2385948Y1893379D1*
X2385956Y1902509D1*
X2387594Y1911491D1*
X2390809Y1920036D1*
X2395499Y1927869D1*
X2401511Y1934739D1*
X2408654Y1940425D1*
X2416698Y1944745D1*
X2425383Y1947558D1*
X2434431Y1948776D1*
X2443552Y1948359D1*
X2452451Y1946319D1*
X2460843Y1942724D1*
X2468458Y1937688D1*
X2475051Y1931373D1*
X2480411Y1923982D1*
X2484365Y1915753D1*
X2486787Y1906950D1*
X2487597Y1897900D1*
X2486771Y1888764D1*
X2186771D2*
X2184334Y1879965D1*
X2180366Y1871743D1*
X2174993Y1864361D1*
X2168389Y1858058D1*
X2160765Y1853035D1*
X2152367Y1849454D1*
X2143464Y1847430D1*
X2134343Y1847028D1*
X2125297Y1848262D1*
X2116616Y1851091D1*
X2108580Y1855424D1*
X2101447Y1861122D1*
X2095447Y1868003D1*
X2090771Y1875845D1*
X2087570Y1884395D1*
X2085948Y1893379D1*
X2085956Y1902509D1*
X2087594Y1911491D1*
X2090809Y1920036D1*
X2095499Y1927869D1*
X2101511Y1934739D1*
X2108654Y1940425D1*
X2116698Y1944745D1*
X2125383Y1947558D1*
X2134431Y1948776D1*
X2143552Y1948359D1*
X2152451Y1946319D1*
X2160843Y1942724D1*
X2168458Y1937688D1*
X2175051Y1931373D1*
X2180411Y1923982D1*
X2184365Y1915753D1*
X2186787Y1906950D1*
X2187597Y1897900D1*
X2186771Y1888764D1*
X855786Y1686036D2*
X855279Y1685786D1*
X853573Y1685106D1*
X851850Y1684469D1*
X850110Y1683879D1*
X848355Y1683334D1*
X846587Y1682835D1*
X844807Y1682382D1*
X843015Y1681977D1*
X840543Y1681502D1*
X851255Y1681503D1*
X855719Y1685970D1*
X898021Y1906850D2*
X896229Y1897842D1*
X893278Y1889144D1*
X889216Y1880907D1*
X884114Y1873269D1*
X878058Y1866363D1*
X871153Y1860307D1*
X863517Y1855204D1*
X855279Y1851141D1*
X846582Y1848188D1*
X837574Y1846395D1*
X828409Y1845794D1*
X819244Y1846394D1*
X810236Y1848185D1*
X801538Y1851137D1*
X793300Y1855199D1*
X785663Y1860301D1*
X778757Y1866356D1*
X772701Y1873261D1*
X767597Y1880898D1*
X763534Y1889135D1*
X760582Y1897832D1*
X758789Y1906840D1*
X758188Y1916006D1*
X758788Y1925171D1*
X760579Y1934179D1*
X763531Y1942877D1*
X767592Y1951114D1*
X772695Y1958752D1*
X778750Y1965658D1*
X785655Y1971714D1*
X793292Y1976817D1*
X801529Y1980880D1*
X810226Y1983833D1*
X819234Y1985626D1*
X828399Y1986227D1*
X837564Y1985627D1*
X846573Y1983836D1*
X855270Y1980884D1*
X863508Y1976822D1*
X871145Y1971720D1*
X878051Y1965665D1*
X884108Y1958760D1*
X889211Y1951123D1*
X893274Y1942886D1*
X896227Y1934189D1*
X898019Y1925181D1*
X898621Y1916010D1*
X898021Y1906850D1*
Y2072205D2*
X896229Y2063196D1*
X893278Y2054499D1*
X889216Y2046261D1*
X884114Y2038624D1*
X878058Y2031718D1*
X871153Y2025661D1*
X863517Y2020558D1*
X855279Y2016495D1*
X846582Y2013542D1*
X837574Y2011750D1*
X828409Y2011148D1*
X819244Y2011748D1*
X810236Y2013540D1*
X801538Y2016491D1*
X793300Y2020553D1*
X785663Y2025655D1*
X778757Y2031711D1*
X772701Y2038616D1*
X767597Y2046252D1*
X766268Y2048947D1*
X674150Y2048943D1*
X672681Y2046261D1*
X667578Y2038624D1*
X661523Y2031718D1*
X654618Y2025661D1*
X646981Y2020558D1*
X638744Y2016495D1*
X630047Y2013542D1*
X621039Y2011750D1*
X611874Y2011148D1*
X602709Y2011748D1*
X593700Y2013540D1*
X585003Y2016491D1*
X576765Y2020553D1*
X569128Y2025655D1*
X562222Y2031711D1*
X556165Y2038616D1*
X551062Y2046252D1*
X546999Y2054490D1*
X544046Y2063187D1*
X542254Y2072195D1*
X541652Y2081360D1*
X542252Y2090525D1*
X544044Y2099533D1*
X546995Y2108231D1*
X551057Y2116469D1*
X556159Y2124106D1*
X562215Y2131012D1*
X569120Y2137068D1*
X576756Y2142172D1*
X584993Y2146235D1*
X593691Y2149188D1*
X602699Y2150980D1*
X611864Y2151581D1*
X621029Y2150981D1*
X630037Y2149190D1*
X638735Y2146238D1*
X646973Y2142177D1*
X654610Y2137074D1*
X661516Y2131019D1*
X667572Y2124114D1*
X672676Y2116477D1*
X674005Y2113783D1*
X766123Y2113786D1*
X767592Y2116469D1*
X772695Y2124106D1*
X778750Y2131012D1*
X785655Y2137068D1*
X793292Y2142172D1*
X801529Y2146235D1*
X810226Y2149188D1*
X819234Y2150980D1*
X828399Y2151581D1*
X837564Y2150981D1*
X846573Y2149190D1*
X855270Y2146238D1*
X863508Y2142177D1*
X871145Y2137074D1*
X878051Y2131019D1*
X884108Y2124114D1*
X889211Y2116477D1*
X893274Y2108240D1*
X896227Y2099543D1*
X898019Y2090535D1*
X898621Y2081365D1*
X898021Y2072205D1*
X1930850Y2347410D2*
X2009845Y2426398D1*
X2013965Y2425709D1*
X2023124Y2425706D1*
X2032158Y2427211D1*
X2040821Y2430182D1*
X2048877Y2434538D1*
X2056106Y2440161D1*
X2062311Y2446898D1*
X2067323Y2454563D1*
X2068653Y2457174D1*
X2069784Y2454594D1*
X2074791Y2446925D1*
X2080992Y2440185D1*
X2088217Y2434557D1*
X2096271Y2430196D1*
X2104932Y2427219D1*
X2113965Y2425709D1*
X2123124Y2425706D1*
X2132158Y2427211D1*
X2140821Y2430182D1*
X2148877Y2434538D1*
X2156106Y2440161D1*
X2162311Y2446898D1*
X2167323Y2454563D1*
X2168653Y2457174D1*
X2169784Y2454594D1*
X2174791Y2446925D1*
X2180992Y2440185D1*
X2188217Y2434557D1*
X2196271Y2430196D1*
X2204932Y2427219D1*
X2213965Y2425709D1*
X2223124Y2425706D1*
X2232158Y2427211D1*
X2240821Y2430182D1*
X2248877Y2434538D1*
X2256106Y2440161D1*
X2262311Y2446898D1*
X2263109Y2447955D1*
Y2425518D1*
X2374014D1*
Y2536424D1*
X2263109D1*
X2263110Y2513826D1*
X2262332Y2515017D1*
X2256132Y2521757D1*
X2248906Y2527385D1*
X2240853Y2531746D1*
X2232191Y2534723D1*
X2223158Y2536233D1*
X2214000Y2536236D1*
X2209844Y2535544D1*
X2166501Y2578882D1*
X2160963Y2583329D1*
X2152622Y2587104D1*
X2143558Y2588396D1*
X1889262D1*
X1882200Y2587624D1*
X1873633Y2584396D1*
X1866310Y2578900D1*
X1818946Y2531529D1*
X1811990Y2531847D1*
X1802942Y2530629D1*
X1794257Y2527816D1*
X1786213Y2523496D1*
X1779070Y2517810D1*
X1773058Y2510940D1*
X1768368Y2503107D1*
X1765153Y2494562D1*
X1763515Y2485580D1*
X1763507Y2476450D1*
X1765129Y2467466D1*
X1768330Y2458915D1*
X1773006Y2451074D1*
X1779006Y2444193D1*
X1786139Y2438495D1*
X1794175Y2434161D1*
X1802856Y2431333D1*
X1811902Y2430099D1*
X1821023Y2430501D1*
X1829926Y2432525D1*
X1838324Y2436106D1*
X1845948Y2441129D1*
X1852552Y2447432D1*
X1857925Y2454814D1*
X1861893Y2463036D1*
X1864330Y2471835D1*
X1865156Y2480971D1*
X1864925Y2485814D1*
X1902672Y2523554D1*
X1983298D1*
X1981017Y2521781D1*
X1974812Y2515045D1*
X1969801Y2507379D1*
X1966119Y2498993D1*
X1963868Y2490116D1*
X1963109Y2480989D1*
X1963830Y2472090D1*
X1894499Y2402763D1*
X1609669Y2402767D1*
X1608910Y2403814D1*
X1602316Y2410129D1*
X1594701Y2415165D1*
X1586309Y2418760D1*
X1577410Y2420800D1*
X1568290Y2421217D1*
X1565842Y2420888D1*
X1548967Y2437755D1*
X1548391Y2438317D1*
X1540934Y2443628D1*
X1532280Y2446644D1*
X1526025Y2447251D1*
X889166Y2447253D1*
X884108Y2454823D1*
X878051Y2461728D1*
X871145Y2467783D1*
X863508Y2472885D1*
X855270Y2476947D1*
X846573Y2479899D1*
X837564Y2481690D1*
X828399Y2482290D1*
X819234Y2481689D1*
X810226Y2479896D1*
X801529Y2476943D1*
X793292Y2472880D1*
X785655Y2467777D1*
X778750Y2461721D1*
X772695Y2454815D1*
X767592Y2447177D1*
X766123Y2444495D1*
X674005Y2444491D1*
X672676Y2447186D1*
X667572Y2454823D1*
X661516Y2461728D1*
X654610Y2467783D1*
X646973Y2472885D1*
X638735Y2476947D1*
X630037Y2479899D1*
X621029Y2481690D1*
X611864Y2482290D1*
X602699Y2481689D1*
X593691Y2479896D1*
X584993Y2476943D1*
X576756Y2472880D1*
X569120Y2467777D1*
X562215Y2461721D1*
X556159Y2454815D1*
X551057Y2447177D1*
X546995Y2438940D1*
X544044Y2430242D1*
X542252Y2421234D1*
X541652Y2412069D1*
X542254Y2402903D1*
X544046Y2393895D1*
X546999Y2385198D1*
X551062Y2376961D1*
X556165Y2369324D1*
X562222Y2362419D1*
X569128Y2356364D1*
X576765Y2351262D1*
X585003Y2347200D1*
X593700Y2344248D1*
X602709Y2342457D1*
X611874Y2341857D1*
X621039Y2342458D1*
X630047Y2344251D1*
X638744Y2347204D1*
X646981Y2351267D1*
X654618Y2356370D1*
X661523Y2362426D1*
X667578Y2369332D1*
X672681Y2376970D1*
X674150Y2379652D1*
X766268Y2379656D1*
X767597Y2376961D1*
X772701Y2369324D1*
X778757Y2362419D1*
X785663Y2356364D1*
X793300Y2351262D1*
X801538Y2347200D1*
X810236Y2344248D1*
X819244Y2342457D1*
X828409Y2341857D1*
X837574Y2342458D1*
X846582Y2344251D1*
X855279Y2347204D1*
X863517Y2351267D1*
X871153Y2356370D1*
X878058Y2362426D1*
X884114Y2369332D1*
X889216Y2376970D1*
X892039Y2382408D1*
X1512616Y2382404D1*
X1519854Y2375169D1*
X1519814Y2374950D1*
X1519806Y2365820D1*
X1521428Y2356836D1*
X1524629Y2348285D1*
X1527830Y2342917D1*
X892184Y2342920D1*
X891379Y2342910D1*
X882350Y2341393D1*
X874098Y2337406D1*
X869242Y2333408D1*
X849418Y2313579D1*
X846573Y2314544D1*
X837564Y2316336D1*
X828399Y2316936D1*
X819234Y2316334D1*
X810226Y2314542D1*
X801529Y2311589D1*
X793292Y2307526D1*
X785655Y2302423D1*
X778750Y2296366D1*
X772695Y2289460D1*
X767592Y2281823D1*
X763531Y2273585D1*
X760579Y2264888D1*
X758788Y2255879D1*
X758188Y2246714D1*
X758789Y2237549D1*
X760582Y2228541D1*
X763534Y2219844D1*
X767597Y2211607D1*
X772701Y2203970D1*
X778757Y2197065D1*
X785663Y2191010D1*
X793300Y2185907D1*
X801538Y2181846D1*
X810236Y2178894D1*
X819244Y2177103D1*
X828409Y2176503D1*
X837574Y2177104D1*
X846582Y2178896D1*
X855279Y2181849D1*
X863517Y2185912D1*
X871153Y2191016D1*
X878058Y2197072D1*
X884114Y2203978D1*
X889216Y2211615D1*
X893278Y2219853D1*
X896229Y2228551D1*
X898021Y2237559D1*
X898621Y2246724D1*
X898019Y2255889D1*
X896227Y2264897D1*
X895267Y2267726D1*
X905621Y2278077D1*
X2837039D1*
X2844100Y2278850D1*
X2852668Y2282078D1*
X2859991Y2287573D1*
X3473568Y2901145D1*
X3473799Y2901074D1*
X3482867Y2899706D1*
X3492037Y2899705D1*
X3501106Y2901071D1*
X3509869Y2903773D1*
X3518132Y2907751D1*
X3525710Y2912916D1*
X3532433Y2919153D1*
X3538152Y2926322D1*
X3542738Y2934264D1*
X3546089Y2942800D1*
X3548131Y2951740D1*
X3548818Y2960892D1*
X3548133Y2970030D1*
X3546094Y2978971D1*
X3542744Y2987508D1*
X3538160Y2995451D1*
X3532443Y3002621D1*
X3525721Y3008860D1*
X3524959Y3009379D1*
X3589970Y3009381D1*
X3624693Y2974663D1*
X3623638Y2970044D1*
X3622951Y2960900D1*
X3623636Y2951755D1*
X3625675Y2942814D1*
X3629025Y2934276D1*
X3633609Y2926334D1*
X3639326Y2919163D1*
X3646048Y2912925D1*
X3653624Y2907758D1*
X3661886Y2903778D1*
X3670649Y2901074D1*
X3679717Y2899706D1*
X3688888Y2899705D1*
X3697956Y2901071D1*
X3706720Y2903773D1*
X3714983Y2907751D1*
X3722560Y2912916D1*
X3729284Y2919153D1*
X3735002Y2926322D1*
X3739588Y2934264D1*
X3742940Y2942800D1*
X3744982Y2951740D1*
X3745668Y2960892D1*
X3744984Y2970030D1*
X3742944Y2978971D1*
X3739595Y2987508D1*
X3735010Y2995451D1*
X3729293Y3002621D1*
X3722572Y3008860D1*
X3714995Y3014027D1*
X3706733Y3018007D1*
X3697970Y3020711D1*
X3688902Y3022079D1*
X3679732Y3022080D1*
X3670663Y3020714D1*
X3670403Y3020650D1*
X3625753Y3065285D1*
X3618296Y3070597D1*
X3609642Y3073612D1*
X3603385Y3074219D1*
X3173859Y3074209D1*
X3164830Y3072692D1*
X3156579Y3068705D1*
X3151725Y3064710D1*
X3107650Y3020639D1*
X3107419Y3020711D1*
X3098351Y3022079D1*
X3089180Y3022080D1*
X3080112Y3020714D1*
X3071349Y3018012D1*
X3063086Y3014034D1*
X3055508Y3008869D1*
X3048785Y3002632D1*
X3043066Y2995463D1*
X3038480Y2987521D1*
X3035128Y2978985D1*
X3033087Y2970044D1*
X3032400Y2960900D1*
X3033085Y2951755D1*
X3034001Y2946986D1*
X2999415Y2912408D1*
X2934411Y2912407D1*
X2935159Y2912916D1*
X2941882Y2919153D1*
X2947601Y2926322D1*
X2952187Y2934264D1*
X2955538Y2942800D1*
X2957580Y2951740D1*
X2958266Y2960892D1*
X2957582Y2970030D1*
X2955543Y2978971D1*
X2952193Y2987508D1*
X2947609Y2995451D1*
X2941892Y3002621D1*
X2935170Y3008860D1*
X2927593Y3014027D1*
X2919332Y3018007D1*
X2910569Y3020711D1*
X2901501Y3022079D1*
X2892330Y3022080D1*
X2883262Y3020714D1*
X2874498Y3018012D1*
X2866235Y3014034D1*
X2858657Y3008869D1*
X2851934Y3002632D1*
X2846216Y2995463D1*
X2841629Y2987521D1*
X2838278Y2978985D1*
X2836236Y2970044D1*
X2835550Y2960900D1*
X2836234Y2951755D1*
X2838274Y2942814D1*
X2841623Y2934276D1*
X2846208Y2926334D1*
X2851924Y2919163D1*
X2858646Y2912925D1*
X2859306Y2912408D1*
X2540711Y2912407D1*
X2541458Y2912916D1*
X2548181Y2919153D1*
X2553900Y2926322D1*
X2558486Y2934264D1*
X2561838Y2942800D1*
X2563879Y2951740D1*
X2564566Y2960892D1*
X2563881Y2970030D1*
X2561842Y2978971D1*
X2558492Y2987508D1*
X2553908Y2995451D1*
X2548191Y3002621D1*
X2541469Y3008860D1*
X2533893Y3014027D1*
X2525631Y3018007D1*
X2516868Y3020711D1*
X2507800Y3022079D1*
X2498629Y3022080D1*
X2489561Y3020714D1*
X2480797Y3018012D1*
X2472534Y3014034D1*
X2464957Y3008869D1*
X2458233Y3002632D1*
X2452515Y2995463D1*
X2447929Y2987521D1*
X2444577Y2978985D1*
X2442535Y2970044D1*
X2441849Y2960900D1*
X2442533Y2951755D1*
X2444573Y2942814D1*
X2447922Y2934276D1*
X2452507Y2926334D1*
X2458224Y2919163D1*
X2464945Y2912925D1*
X2465602Y2912408D1*
X2400696Y2912404D1*
X2365974Y2947122D1*
X2367029Y2951740D1*
X2367715Y2960892D1*
X2367031Y2970030D1*
X2364991Y2978971D1*
X2361642Y2987508D1*
X2357058Y2995451D1*
X2351341Y3002621D1*
X2344619Y3008860D1*
X2337042Y3014027D1*
X2328780Y3018007D1*
X2320017Y3020711D1*
X2310949Y3022079D1*
X2301779Y3022080D1*
X2292710Y3020714D1*
X2283947Y3018012D1*
X2275684Y3014034D1*
X2268106Y3008869D1*
X2261383Y3002632D1*
X2255664Y2995463D1*
X2254255Y2993314D1*
X2016786Y2993313D1*
X2018925Y3001748D1*
X2019684Y3010892D1*
X2018930Y3020002D1*
X2016685Y3028881D1*
X2013008Y3037270D1*
X2008002Y3044938D1*
X2001801Y3051679D1*
X1994575Y3057306D1*
X1986522Y3061668D1*
X1977861Y3064644D1*
X1968828Y3066154D1*
X1959669Y3066157D1*
X1950635Y3064653D1*
X1941972Y3061682D1*
X1933916Y3057325D1*
X1926687Y3051702D1*
X1920482Y3044966D1*
X1915470Y3037300D1*
X1911788Y3028914D1*
X1909537Y3020037D1*
X1908778Y3010910D1*
X1909532Y3001782D1*
X1911674Y2993311D1*
X1714231Y2993314D1*
X1713426Y2993304D1*
X1704397Y2991786D1*
X1696146Y2987799D1*
X1691292Y2983804D1*
X1672947Y2965466D1*
X1668828Y2966154D1*
X1659669Y2966157D1*
X1650635Y2964653D1*
X1641972Y2961682D1*
X1633916Y2957325D1*
X1626687Y2951702D1*
X1620482Y2944966D1*
X1615470Y2937300D1*
X1611788Y2928914D1*
X1609537Y2920037D1*
X1608778Y2910910D1*
X1609532Y2901782D1*
X1611777Y2892903D1*
X1615453Y2884515D1*
X1620460Y2876846D1*
X1626661Y2870106D1*
X1633887Y2864479D1*
X1641940Y2860117D1*
X1650601Y2857141D1*
X1659634Y2855630D1*
X1668793Y2855628D1*
X1677827Y2857132D1*
X1686490Y2860103D1*
X1694546Y2864460D1*
X1701775Y2870083D1*
X1707980Y2876819D1*
X1712992Y2884484D1*
X1716673Y2892870D1*
X1718925Y2901748D1*
X1719684Y2910892D1*
X1718962Y2919772D1*
X1727668Y2928471D1*
X1911676Y2928472D1*
X1909537Y2920037D1*
X1908778Y2910910D1*
X1909532Y2901782D1*
X1911777Y2892903D1*
X1915453Y2884515D1*
X1920460Y2876846D1*
X1926661Y2870106D1*
X1933887Y2864479D1*
X1941940Y2860117D1*
X1950601Y2857141D1*
X1959634Y2855630D1*
X1968793Y2855628D1*
X1977827Y2857132D1*
X1986490Y2860103D1*
X1994546Y2864460D1*
X2001775Y2870083D1*
X2007980Y2876819D1*
X2012992Y2884484D1*
X2016673Y2892870D1*
X2018925Y2901748D1*
X2019684Y2910892D1*
X2018930Y2920002D1*
X2016788Y2928474D1*
X2254425Y2928467D1*
X2255656Y2926334D1*
X2261373Y2919163D1*
X2268095Y2912925D1*
X2275672Y2907758D1*
X2283934Y2903778D1*
X2292696Y2901074D1*
X2301764Y2899706D1*
X2310935Y2899705D1*
X2320003Y2901071D1*
X2320264Y2901135D1*
X2364317Y2857081D1*
X2369857Y2852633D1*
X2378199Y2848858D1*
X2387262Y2847565D1*
X3012826D1*
X3019888Y2848338D1*
X3028455Y2851566D1*
X3035778Y2857061D1*
X3079867Y2901145D1*
X3080098Y2901074D1*
X3089166Y2899706D1*
X3098337Y2899705D1*
X3107405Y2901071D1*
X3116169Y2903773D1*
X3124431Y2907751D1*
X3132009Y2912916D1*
X3138732Y2919153D1*
X3144451Y2926322D1*
X3149037Y2934264D1*
X3152389Y2942800D1*
X3154430Y2951740D1*
X3155117Y2960892D1*
X3154433Y2970030D1*
X3153516Y2974799D1*
X3188093Y3009377D1*
X3449956Y3009378D1*
X3449209Y3008869D1*
X3442485Y3002632D1*
X3436767Y2995463D1*
X3432181Y2987521D1*
X3428829Y2978985D1*
X3426787Y2970044D1*
X3426101Y2960900D1*
X3426785Y2951755D1*
X3427843Y2947118D1*
X3379277Y2898561D1*
X2823629Y2342920D1*
X1925232D1*
X1930850Y2347410D1*
X898021Y2568268D2*
X896229Y2559259D1*
X893278Y2550562D1*
X889216Y2542324D1*
X884114Y2534687D1*
X878058Y2527781D1*
X871153Y2521724D1*
X863517Y2516621D1*
X855279Y2512558D1*
X846582Y2509605D1*
X837574Y2507813D1*
X828409Y2507211D1*
X819244Y2507811D1*
X810236Y2509603D1*
X801538Y2512554D1*
X793300Y2516616D1*
X785663Y2521718D1*
X778757Y2527774D1*
X772701Y2534679D1*
X767597Y2542315D1*
X763534Y2550553D1*
X760582Y2559250D1*
X758789Y2568258D1*
X758188Y2577423D1*
X758788Y2586588D1*
X760579Y2595596D1*
X763531Y2604294D1*
X767592Y2612532D1*
X772695Y2620169D1*
X778750Y2627075D1*
X785655Y2633131D1*
X793292Y2638235D1*
X801529Y2642298D1*
X810226Y2645250D1*
X819234Y2647043D1*
X828399Y2647644D1*
X837564Y2647044D1*
X846573Y2645253D1*
X855270Y2642301D1*
X863508Y2638240D1*
X871145Y2633137D1*
X878051Y2627082D1*
X884108Y2620177D1*
X889211Y2612540D1*
X893274Y2604303D1*
X896227Y2595606D1*
X898019Y2586598D1*
X898621Y2577428D1*
X898021Y2568268D1*
Y2733622D2*
X896229Y2724614D1*
X893278Y2715916D1*
X889216Y2707678D1*
X884114Y2700041D1*
X878058Y2693135D1*
X871153Y2687079D1*
X863517Y2681975D1*
X855279Y2677912D1*
X846582Y2674959D1*
X837574Y2673167D1*
X828409Y2672566D1*
X819244Y2673166D1*
X810236Y2674957D1*
X801538Y2677909D1*
X793300Y2681970D1*
X785663Y2687073D1*
X778757Y2693128D1*
X772701Y2700033D1*
X767597Y2707670D1*
X766268Y2710364D1*
X674150Y2710361D1*
X672681Y2707678D1*
X667578Y2700041D1*
X661523Y2693135D1*
X654618Y2687079D1*
X646981Y2681975D1*
X638744Y2677912D1*
X630047Y2674959D1*
X621039Y2673167D1*
X611874Y2672566D1*
X602709Y2673166D1*
X593700Y2674957D1*
X585003Y2677909D1*
X576765Y2681970D1*
X569128Y2687073D1*
X562222Y2693128D1*
X556165Y2700033D1*
X551062Y2707670D1*
X546999Y2715907D1*
X544046Y2724604D1*
X542254Y2733612D1*
X541652Y2742777D1*
X542252Y2751942D1*
X544044Y2760951D1*
X546995Y2769648D1*
X551057Y2777886D1*
X556159Y2785523D1*
X562215Y2792429D1*
X569120Y2798486D1*
X576756Y2803589D1*
X584993Y2807652D1*
X593691Y2810605D1*
X602699Y2812397D1*
X611864Y2812999D1*
X621029Y2812399D1*
X630037Y2810607D1*
X638735Y2807656D1*
X646973Y2803594D1*
X654610Y2798492D1*
X661516Y2792436D1*
X667572Y2785531D1*
X672676Y2777895D1*
X674005Y2775200D1*
X766123Y2775203D1*
X767592Y2777886D1*
X772695Y2785523D1*
X778750Y2792429D1*
X785655Y2798486D1*
X793292Y2803589D1*
X801529Y2807652D1*
X802364Y2807985D1*
X795841Y2808692D1*
X786795Y2810287D1*
X777900Y2812578D1*
X769209Y2815551D1*
X760775Y2819190D1*
X752648Y2823470D1*
X744877Y2828368D1*
X737509Y2833853D1*
X730588Y2839893D1*
X724156Y2846450D1*
X718252Y2853487D1*
X712910Y2860960D1*
X708164Y2868824D1*
X704042Y2877032D1*
X700567Y2885535D1*
X697763Y2894282D1*
X695644Y2903220D1*
X694225Y2912295D1*
X693513Y2921453D1*
Y2930639D1*
X694225Y2939796D1*
X695644Y2948872D1*
X697762Y2957810D1*
X700566Y2966556D1*
X704040Y2975060D1*
X708163Y2983268D1*
X712909Y2991133D1*
X718250Y2998606D1*
X724154Y3005642D1*
X730586Y3012200D1*
X737507Y3018240D1*
X744874Y3023725D1*
X752645Y3028623D1*
X760772Y3032904D1*
X769206Y3036542D1*
X777897Y3039516D1*
X786792Y3041807D1*
X795838Y3043402D1*
X804980Y3044292D1*
X814164Y3044470D1*
X823334Y3043936D1*
X832435Y3042693D1*
X841412Y3040748D1*
X850212Y3038114D1*
X858781Y3034806D1*
X867068Y3030843D1*
X875023Y3026251D1*
X882598Y3021055D1*
X889748Y3015289D1*
X896429Y3008985D1*
X902602Y3002183D1*
X908229Y2994923D1*
X913277Y2987249D1*
X917714Y2979206D1*
X921515Y2970844D1*
X924657Y2962213D1*
X927121Y2953364D1*
X928891Y2944351D1*
X929957Y2935227D1*
X930314Y2926047D1*
X929958Y2916870D1*
X928891Y2907747D1*
X927121Y2898733D1*
X924658Y2889884D1*
X921517Y2881253D1*
X917716Y2872891D1*
X913278Y2864848D1*
X908231Y2857174D1*
X902604Y2849913D1*
X896431Y2843111D1*
X889750Y2836808D1*
X882600Y2831041D1*
X875025Y2825845D1*
X867071Y2821252D1*
X858784Y2817290D1*
X850215Y2813981D1*
X842300Y2811612D1*
X844768Y2811065D1*
X846549Y2810614D1*
X848317Y2810116D1*
X850072Y2809572D1*
X858604Y2806172D1*
X866620Y2801688D1*
X873982Y2796196D1*
X880564Y2789790D1*
X886253Y2782579D1*
X890953Y2774688D1*
X894583Y2766251D1*
X897080Y2757412D1*
X898402Y2748323D1*
X898621Y2742782D1*
X898021Y2733622D1*
X681485Y2568268D2*
X679694Y2559259D1*
X676742Y2550562D1*
X672681Y2542324D1*
X667578Y2534687D1*
X661523Y2527781D1*
X654618Y2521724D1*
X646981Y2516621D1*
X638744Y2512558D1*
X630047Y2509605D1*
X621039Y2507813D1*
X611874Y2507211D1*
X602709Y2507811D1*
X593700Y2509603D1*
X585003Y2512554D1*
X576765Y2516616D1*
X569128Y2521718D1*
X562222Y2527774D1*
X556165Y2534679D1*
X551062Y2542315D1*
X546999Y2550553D1*
X544046Y2559250D1*
X542254Y2568258D1*
X541652Y2577423D1*
X542252Y2586588D1*
X544044Y2595596D1*
X546995Y2604294D1*
X551057Y2612532D1*
X556159Y2620169D1*
X562215Y2627075D1*
X569120Y2633131D1*
X576756Y2638235D1*
X584993Y2642298D1*
X593691Y2645250D1*
X602699Y2647043D1*
X611864Y2647644D1*
X621029Y2647044D1*
X630037Y2645253D1*
X638735Y2642301D1*
X646973Y2638240D1*
X654610Y2633137D1*
X661516Y2627082D1*
X667572Y2620177D1*
X672676Y2612540D1*
X676738Y2604303D1*
X679691Y2595606D1*
X681484Y2586598D1*
X682085Y2577428D1*
X681485Y2568268D1*
X2068470Y2157176D2*
X2067323Y2154563D1*
X2062311Y2146898D1*
X2056106Y2140161D1*
X2048877Y2134538D1*
X2040821Y2130182D1*
X2032158Y2127211D1*
X2023124Y2125706D1*
X2013965Y2125709D1*
X2004932Y2127219D1*
X1996271Y2130196D1*
X1988217Y2134557D1*
X1980992Y2140185D1*
X1974791Y2146925D1*
X1969784Y2154594D1*
X1966108Y2162982D1*
X1963862Y2171861D1*
X1963109Y2180989D1*
X1963868Y2190116D1*
X1966119Y2198993D1*
X1969801Y2207379D1*
X1974812Y2215045D1*
X1981017Y2221781D1*
X1988246Y2227404D1*
X1996303Y2231760D1*
X2004966Y2234731D1*
X2014000Y2236236D1*
X2023158Y2236233D1*
X2032191Y2234723D1*
X2040853Y2231746D1*
X2048906Y2227385D1*
X2056132Y2221757D1*
X2062332Y2215017D1*
X2067339Y2207348D1*
X2068470Y2204768D1*
X2069801Y2207379D1*
X2074812Y2215045D1*
X2081017Y2221781D1*
X2088246Y2227404D1*
X2096303Y2231760D1*
X2104966Y2234731D1*
X2114000Y2236236D1*
X2123158Y2236233D1*
X2132191Y2234723D1*
X2140853Y2231746D1*
X2148906Y2227385D1*
X2156132Y2221757D1*
X2162332Y2215017D1*
X2167339Y2207348D1*
X2171016Y2198960D1*
X2173261Y2190081D1*
X2174014Y2180971D1*
X2173255Y2171827D1*
X2171004Y2162949D1*
X2167323Y2154563D1*
X2162311Y2146898D1*
X2156106Y2140161D1*
X2148877Y2134538D1*
X2140821Y2130182D1*
X2132158Y2127211D1*
X2123124Y2125706D1*
X2113965Y2125709D1*
X2104932Y2127219D1*
X2096271Y2130196D1*
X2088217Y2134557D1*
X2080992Y2140185D1*
X2074791Y2146925D1*
X2069784Y2154594D1*
X2068653Y2157174D1*
X2373255Y2171827D2*
X2371004Y2162949D1*
X2367323Y2154563D1*
X2362311Y2146898D1*
X2356106Y2140161D1*
X2348877Y2134538D1*
X2340821Y2130182D1*
X2332158Y2127211D1*
X2323124Y2125706D1*
X2313965Y2125709D1*
X2304932Y2127219D1*
X2296271Y2130196D1*
X2288217Y2134557D1*
X2280992Y2140185D1*
X2274791Y2146925D1*
X2269784Y2154594D1*
X2266108Y2162982D1*
X2263862Y2171861D1*
X2263109Y2180989D1*
X2263868Y2190116D1*
X2266119Y2198993D1*
X2269801Y2207379D1*
X2274812Y2215045D1*
X2281017Y2221781D1*
X2288246Y2227404D1*
X2296303Y2231760D1*
X2304966Y2234731D1*
X2314000Y2236236D1*
X2323158Y2236233D1*
X2332191Y2234723D1*
X2340853Y2231746D1*
X2348906Y2227385D1*
X2356132Y2221757D1*
X2362332Y2215017D1*
X2367339Y2207348D1*
X2371016Y2198960D1*
X2373261Y2190081D1*
X2374014Y2180971D1*
X2373255Y2171827D1*
X1008095Y1831171D2*
X999519Y1827941D1*
X992195Y1822446D1*
X893020Y1723267D1*
X893278Y1723790D1*
X896229Y1732488D1*
X898021Y1741496D1*
X898621Y1750656D1*
X898596Y1752533D1*
X897750Y1761679D1*
X895718Y1770636D1*
X892534Y1779251D1*
X888253Y1787377D1*
X882948Y1794875D1*
X876710Y1801616D1*
X869645Y1807485D1*
X861875Y1812382D1*
X853531Y1816223D1*
X844758Y1818942D1*
X835705Y1820492D1*
X826527Y1820848D1*
X817382Y1820002D1*
X808424Y1817970D1*
X799809Y1814786D1*
X791683Y1810505D1*
X784185Y1805200D1*
X777444Y1798962D1*
X771575Y1791897D1*
X766678Y1784127D1*
X766123Y1783077D1*
X674005Y1783074D1*
X672676Y1785769D1*
X667572Y1793405D1*
X661516Y1800310D1*
X654610Y1806366D1*
X646973Y1811468D1*
X638735Y1815530D1*
X630037Y1818481D1*
X621029Y1820273D1*
X611864Y1820873D1*
X602699Y1820271D1*
X593691Y1818479D1*
X584993Y1815526D1*
X576756Y1811463D1*
X569120Y1806360D1*
X562215Y1800303D1*
X556159Y1793397D1*
X551057Y1785760D1*
X546995Y1777522D1*
X544044Y1768825D1*
X542252Y1759816D1*
X541652Y1750651D1*
X542254Y1741486D1*
X544046Y1732478D1*
X546999Y1723781D1*
X551062Y1715544D1*
X556165Y1707907D1*
X562222Y1701002D1*
X569128Y1694947D1*
X576765Y1689844D1*
X585003Y1685783D1*
X593700Y1682831D1*
X602709Y1681040D1*
X611874Y1680440D1*
X621039Y1681041D1*
X630047Y1682833D1*
X638744Y1685786D1*
X646981Y1689849D1*
X654618Y1694953D1*
X661523Y1701009D1*
X667578Y1707915D1*
X672681Y1715552D1*
X674150Y1718235D1*
X766293Y1718228D1*
X768555Y1713935D1*
X773860Y1706437D1*
X780098Y1699696D1*
X787163Y1693827D1*
X794934Y1688930D1*
X796560Y1688076D1*
X798208Y1687264D1*
X799877Y1686496D1*
X801566Y1685771D1*
X803272Y1685091D1*
X804996Y1684456D1*
X806736Y1683866D1*
X808491Y1683322D1*
X810260Y1682824D1*
X812041Y1682373D1*
X813833Y1681968D1*
X816262Y1681503D1*
X675673D1*
X668614Y1680730D1*
X660046Y1677502D1*
X652723Y1672007D1*
X632883Y1652161D1*
X630037Y1653127D1*
X621029Y1654918D1*
X611864Y1655518D1*
X602699Y1654917D1*
X593691Y1653125D1*
X584993Y1650172D1*
X576756Y1646109D1*
X569120Y1641005D1*
X562215Y1634949D1*
X556159Y1628043D1*
X551057Y1620406D1*
X546995Y1612168D1*
X544044Y1603470D1*
X542252Y1594462D1*
X541652Y1585297D1*
X542254Y1576132D1*
X544046Y1567124D1*
X546999Y1558427D1*
X551062Y1550189D1*
X556165Y1542553D1*
X562222Y1535648D1*
X569128Y1529592D1*
X576765Y1524490D1*
X585003Y1520428D1*
X593700Y1517477D1*
X602709Y1515685D1*
X611874Y1515085D1*
X621039Y1515687D1*
X630047Y1517479D1*
X638744Y1520432D1*
X646981Y1524495D1*
X654618Y1529598D1*
X661523Y1535655D1*
X667578Y1542561D1*
X672681Y1550198D1*
X676742Y1558436D1*
X679694Y1567133D1*
X681485Y1576142D1*
X682085Y1585307D1*
X681484Y1594472D1*
X679691Y1603480D1*
X678830Y1606412D1*
X689075Y1616660D1*
X765707Y1616662D1*
X762838Y1610429D1*
X760119Y1601656D1*
X758568Y1592603D1*
X758213Y1583425D1*
X759058Y1574279D1*
X761090Y1565322D1*
X764274Y1556707D1*
X768555Y1548581D1*
X773860Y1541083D1*
X780098Y1534342D1*
X787163Y1528473D1*
X794934Y1523576D1*
X796560Y1522721D1*
X798208Y1521910D1*
X799877Y1521141D1*
X801566Y1520417D1*
X803272Y1519737D1*
X804996Y1519102D1*
X806736Y1518512D1*
X808491Y1517968D1*
X810260Y1517470D1*
X812041Y1517019D1*
X813833Y1516614D1*
X816262Y1516149D1*
X674844Y1516138D1*
X665815Y1514621D1*
X657563Y1510634D1*
X652707Y1506636D1*
X632883Y1486807D1*
X630037Y1487773D1*
X621029Y1489564D1*
X611864Y1490164D1*
X602699Y1489563D1*
X593691Y1487770D1*
X584993Y1484817D1*
X576756Y1480754D1*
X569120Y1475651D1*
X562215Y1469595D1*
X556159Y1462689D1*
X551057Y1455051D1*
X546995Y1446814D1*
X544044Y1438116D1*
X542252Y1429108D1*
X541652Y1419943D1*
X542254Y1410777D1*
X544046Y1401769D1*
X544975Y1398589D1*
X448778Y1398584D1*
X448782Y3145243D1*
X3848975Y3145235D1*
X3848981Y1201739D1*
X1070211Y1201735D1*
X805127Y1391081D1*
X796401Y1397167D1*
X790609Y1398589D1*
X678613Y1398594D1*
X679694Y1401779D1*
X681485Y1410787D1*
X682085Y1419952D1*
X681484Y1429118D1*
X679691Y1438126D1*
X678731Y1440954D1*
X689069Y1451306D1*
X1031364D1*
X1038425Y1452078D1*
X1046992Y1455307D1*
X1054315Y1460802D1*
X1122968Y1529455D1*
X1907597Y1529464D1*
Y1440085D1*
X2035826D1*
Y1529455D1*
X3614795D1*
X3621856Y1530228D1*
X3630424Y1533456D1*
X3637747Y1538951D1*
X3670549Y1571762D1*
X3672926Y1571438D1*
X3682047Y1571839D1*
X3690949Y1573863D1*
X3699347Y1577444D1*
X3706971Y1582467D1*
X3713576Y1588771D1*
X3718949Y1596152D1*
X3722917Y1604374D1*
X3725353Y1613173D1*
X3726180Y1622310D1*
X3726069Y1625672D1*
X3724652Y1634691D1*
X3721647Y1643312D1*
X3717151Y1651258D1*
X3711309Y1658274D1*
X3704308Y1664134D1*
X3696373Y1668650D1*
X3687759Y1671676D1*
X3678744Y1673115D1*
X3669616Y1672922D1*
X3660670Y1671102D1*
X3652192Y1667713D1*
X3644455Y1662866D1*
X3637709Y1656714D1*
X3632169Y1649457D1*
X3631218Y1647886D1*
X3630324Y1646281D1*
X3629488Y1644644D1*
X3628713Y1642979D1*
X3627997Y1641287D1*
X3627344Y1639570D1*
X3626752Y1637831D1*
X3626180Y1635906D1*
Y1673235D1*
X3524329D1*
X3524338Y1654731D1*
X3341952Y1654735D1*
X3341193Y1655782D1*
X3334600Y1662097D1*
X3326984Y1667133D1*
X3318593Y1670729D1*
X3309693Y1672768D1*
X3300573Y1673186D1*
X3291525Y1671968D1*
X3282839Y1669154D1*
X3274796Y1664835D1*
X3267653Y1659149D1*
X3261640Y1652279D1*
X3256951Y1644445D1*
X3253735Y1635900D1*
X3252097Y1626919D1*
X3252090Y1617789D1*
X3253712Y1608804D1*
X3256912Y1600254D1*
X3260460Y1594304D1*
X3213170Y1594298D1*
X3045159Y1594300D1*
X3046508Y1596152D1*
X3050476Y1604374D1*
X3052913Y1613173D1*
X3053739Y1622310D1*
X3052928Y1631359D1*
X3050507Y1640162D1*
X3046553Y1648391D1*
X3041193Y1655782D1*
X3034600Y1662097D1*
X3026984Y1667133D1*
X3018593Y1670729D1*
X3009693Y1672768D1*
X3000573Y1673186D1*
X2991525Y1671968D1*
X2982839Y1669154D1*
X2974796Y1664835D1*
X2967653Y1659149D1*
X2961640Y1652279D1*
X2956951Y1644445D1*
X2953735Y1635900D1*
X2952097Y1626919D1*
X2952090Y1617789D1*
X2953712Y1608804D1*
X2956912Y1600254D1*
X2960460Y1594304D1*
X2891647Y1594298D1*
X1108734Y1594288D1*
X1099704Y1592771D1*
X1091453Y1588784D1*
X1086598Y1584787D1*
X1017969Y1516148D1*
X840543D1*
X843015Y1516622D1*
X844807Y1517028D1*
X846587Y1517480D1*
X848355Y1517979D1*
X850110Y1518524D1*
X851850Y1519115D1*
X853573Y1519751D1*
X855279Y1520432D1*
X863517Y1524495D1*
X871153Y1529598D1*
X878058Y1535655D1*
X884114Y1542561D1*
X889216Y1550198D1*
X893278Y1558436D1*
X896229Y1567133D1*
X898021Y1576142D1*
X898621Y1585302D1*
X898596Y1587179D1*
X897750Y1596324D1*
X895718Y1605282D1*
X892534Y1613897D1*
X888253Y1622023D1*
X886238Y1624871D1*
X887620Y1626170D1*
X1028554Y1767100D1*
X3378263Y1767110D1*
X3387292Y1768627D1*
X3395543Y1772614D1*
X3400398Y1776611D1*
X3676541Y2052762D1*
X3678918Y2052438D1*
X3688039Y2052839D1*
X3696941Y2054863D1*
X3705340Y2058444D1*
X3712963Y2063467D1*
X3719568Y2069771D1*
X3724941Y2077152D1*
X3728909Y2085374D1*
X3731346Y2094173D1*
X3732172Y2103310D1*
X3732061Y2106672D1*
X3730644Y2115691D1*
X3727639Y2124312D1*
X3723144Y2132258D1*
X3717301Y2139274D1*
X3710300Y2145134D1*
X3702365Y2149650D1*
X3693752Y2152676D1*
X3684736Y2154115D1*
X3675608Y2153922D1*
X3666662Y2152102D1*
X3658184Y2148713D1*
X3650447Y2143866D1*
X3643701Y2137714D1*
X3638161Y2130457D1*
X3637210Y2128886D1*
X3636316Y2127281D1*
X3635481Y2125644D1*
X3634705Y2123979D1*
X3633990Y2122287D1*
X3633336Y2120570D1*
X3632744Y2118831D1*
X3632172Y2116906D1*
Y2154235D1*
X3530322D1*
X3530317Y2127172D1*
X3341952Y2127176D1*
X3341193Y2128223D1*
X3334600Y2134538D1*
X3326984Y2139574D1*
X3318593Y2143170D1*
X3309693Y2145209D1*
X3300573Y2145627D1*
X3291525Y2144409D1*
X3282839Y2141595D1*
X3274796Y2137276D1*
X3267653Y2131590D1*
X3261640Y2124720D1*
X3256951Y2116886D1*
X3253735Y2108341D1*
X3252097Y2099360D1*
X3252090Y2090230D1*
X3253712Y2081245D1*
X3256912Y2072695D1*
X3261588Y2064853D1*
X3267589Y2057973D1*
X3274722Y2052274D1*
X3282758Y2047941D1*
X3291439Y2045112D1*
X3300485Y2043879D1*
X3309606Y2044280D1*
X3318508Y2046304D1*
X3326906Y2049885D1*
X3334530Y2054908D1*
X3341135Y2061212D1*
X3342080Y2062329D1*
X3530322Y2062333D1*
Y2052384D1*
X3584476Y2052390D1*
X3364025Y1831942D1*
X1015148D1*
X1008095Y1831171D1*
D15*
X3681247Y2103310D3*
D16*
X3581247D3*
D15*
X3675255Y1622310D3*
D16*
X3575255D3*
D17*
X1971711Y1504199D3*
D18*
Y1404199D3*
Y1304199D3*
D15*
X1570530Y2370341D3*
D19*
X1270530D3*
D15*
X1570530Y2020341D3*
D19*
X1270530D3*
D15*
X1570530Y1670341D3*
D19*
X1270530D3*
D15*
X1570530Y1320341D3*
D19*
X1270530D3*
D15*
X3302814Y2094751D3*
D19*
X3002814D3*
D15*
X3302814Y1622310D3*
D19*
X3002814D3*
D15*
X1814231Y2180971D3*
D19*
Y2480971D3*
D20*
X1664231Y3010892D3*
D21*
Y2910892D3*
X1964231D3*
Y3010892D3*
D15*
X2436672Y1897900D3*
D19*
X2136672D3*
D22*
X2306357Y2960892D3*
X2503207D3*
X3487459D3*
X3684310D3*
D23*
X828404Y923885D3*
Y1089239D3*
Y1254593D3*
Y1419948D3*
Y1585302D3*
Y1750656D3*
Y1916010D3*
Y2081365D3*
Y2246719D3*
Y2412073D3*
Y2577428D3*
Y2742782D3*
X611869D3*
Y2577428D3*
Y2412073D3*
Y2246719D3*
Y2081365D3*
Y1916010D3*
Y1750656D3*
Y1585302D3*
Y1419948D3*
Y1254593D3*
Y1089239D3*
Y923885D3*
D22*
X1558325Y638058D3*
X1755176D3*
X2148877D3*
X2345727D3*
X2739428D3*
X2936278D3*
X3329979D3*
X3526829D3*
D20*
X2318562Y2480971D3*
D24*
X2218562D3*
X2118562D3*
X2018562D3*
Y2180971D3*
X2118562D3*
X2218562D3*
X2318562D3*
D22*
X2896908Y2960892D3*
X3093759D3*
M02*
