G04 DipTrace 4.0.0.5*
G04 BottomMask.gbr*
%MOIN*%
G04 #@! TF.FileFunction,Soldermask,Bot*
G04 #@! TF.Part,Single*
%ADD25C,0.185039*%
%ADD34C,0.062992*%
%ADD36C,0.09252*%
%ADD38C,0.074803*%
%ADD40C,0.062992*%
%ADD41R,0.062992X0.062992*%
%ADD43C,0.053937*%
%ADD45C,0.080315*%
%ADD47R,0.080315X0.080315*%
%ADD49R,0.053937X0.053937*%
%ADD51C,0.053937*%
%FSLAX26Y26*%
G04*
G70*
G90*
G75*
G01*
G04 BotMask*
%LPD*%
D51*
X3681247Y2103310D3*
D49*
X3581247D3*
D51*
X3675255Y1622310D3*
D49*
X3575255D3*
D47*
X1971711Y1504199D3*
D45*
Y1404199D3*
Y1304199D3*
D51*
X1570530Y2370341D3*
D43*
X1270530D3*
D51*
X1570530Y2020341D3*
D43*
X1270530D3*
D51*
X1570530Y1670341D3*
D43*
X1270530D3*
D51*
X1570530Y1320341D3*
D43*
X1270530D3*
D51*
X3302814Y2094751D3*
D43*
X3002814D3*
D51*
X3302814Y1622310D3*
D43*
X3002814D3*
D51*
X1814231Y2180971D3*
D43*
Y2480971D3*
D41*
X1664231Y3010892D3*
D40*
Y2910892D3*
X1964231D3*
Y3010892D3*
D51*
X2436672Y1897900D3*
D43*
X2136672D3*
D38*
X2306357Y2960892D3*
X2503207D3*
X3487459D3*
X3684310D3*
D36*
X828404Y923885D3*
Y1089239D3*
Y1254593D3*
Y1419948D3*
Y1585302D3*
Y1750656D3*
Y1916010D3*
Y2081365D3*
Y2246719D3*
Y2412073D3*
Y2577428D3*
Y2742782D3*
X611869D3*
Y2577428D3*
Y2412073D3*
Y2246719D3*
Y2081365D3*
Y1916010D3*
Y1750656D3*
Y1585302D3*
Y1419948D3*
Y1254593D3*
Y1089239D3*
Y923885D3*
D25*
X811869Y744220D3*
Y2926047D3*
D38*
X1558325Y638058D3*
X1755176D3*
X2148877D3*
X2345727D3*
X2739428D3*
X2936278D3*
X3329979D3*
X3526829D3*
D41*
X2318562Y2480971D3*
D34*
X2218562D3*
X2118562D3*
X2018562D3*
Y2180971D3*
X2118562D3*
X2218562D3*
X2318562D3*
D38*
X2896908Y2960892D3*
X3093759D3*
M02*
