%TF.GenerationSoftware,Novarm,DipTrace,4.0.0.5*%
%TF.CreationDate,2022-05-21T16:57:31-06:00*%
%FSLAX26Y26*%
%MOIN*%
%TF.FileFunction,Copper,L1,Top*%
%TF.Part,Single*%
%TA.AperFunction,Conductor*%
%ADD14C,0.012992*%
%ADD15C,0.07874*%
%ADD16C,0.03937*%
%TA.AperFunction,CopperBalancing*%
%ADD17C,0.025*%
%TA.AperFunction,ComponentPad*%
%ADD18C,0.05*%
%ADD19R,0.05X0.05*%
%ADD21R,0.076378X0.076378*%
%ADD22C,0.076378*%
%ADD23C,0.059055*%
%ADD24C,0.070866*%
%ADD25C,0.088583*%
%ADD26R,0.059055X0.059055*%
%TA.AperFunction,ViaPad*%
%ADD27C,0.04*%
G75*
G01*
%LPD*%
X608661Y884252D2*
D14*
X710236Y782677D1*
X969291D1*
X1161417Y590551D1*
X2342520D2*
X2423425Y671457D1*
X2852165D1*
X2933071Y590551D1*
X1751969D2*
X1832878Y509642D1*
X2261610D1*
X2342520Y590551D1*
X1161417D2*
X1216339Y645472D1*
X1697047D1*
X1751969Y590551D1*
X1267323Y1815354D2*
X1427953Y1975984D1*
X1811024D1*
X825197Y1049606D2*
X890945Y1115354D1*
X1267323D1*
X1811024Y1975984D2*
X1860043Y2025004D1*
X2166335D1*
X2215354Y1975984D1*
X1267323Y1115354D2*
X1351181Y1199213D1*
X1850394D1*
X608661Y2207087D2*
X825197D1*
Y1545669D2*
X608661D1*
X825197Y1876378D2*
X608661D1*
X1567323Y2165354D2*
X1904724D1*
X2015354Y2275984D1*
X825197Y2207087D2*
X827953Y2209843D1*
X1522835D1*
X1567323Y2165354D1*
X1988189Y2637795D2*
D15*
X1887106Y2536713D1*
X2470866D1*
X2570866Y2636713D1*
D14*
Y2645669D1*
X2578740Y2637795D1*
X1200787D2*
D15*
X1301870Y2536713D1*
X1887106D1*
D16*
X1988189Y2637795D1*
X825197Y2207087D2*
D14*
Y2203150D1*
D15*
X1195866Y2573819D1*
Y2637795D1*
D14*
X1200787D1*
X608661Y2537795D2*
X825197D1*
X608661Y1214961D2*
X672441Y1278740D1*
X1003150D1*
X1259843Y1535433D1*
X2963386D1*
X3002756Y1574803D1*
Y2125984D2*
X2727165Y1850394D1*
X2007874D1*
X1771654Y1614173D1*
X1220472D1*
X1050394Y1444094D1*
X672441D1*
X608661Y1380315D1*
X2902756Y2125984D2*
X2752756Y2275984D1*
X2637795D1*
X2215354D2*
X2140350Y2350988D1*
X1886028D1*
X1811024Y2275984D1*
X1574803Y2283465D2*
X1803543D1*
X1811024Y2275984D1*
X2902756Y1574803D2*
X2795276D1*
X2637795Y1732283D1*
Y1724803D1*
X1850394Y1099213D2*
X1847244D1*
X2007874Y1259843D1*
Y1456693D1*
D27*
D3*
D3*
D3*
X1574803Y2283465D3*
X448080Y1064993D2*
D17*
X735159D1*
X448080Y1040125D2*
X753119D1*
X448080Y1015256D2*
X761462D1*
X448080Y990387D2*
X784966D1*
X448080Y965518D2*
X867787D1*
X448080Y940650D2*
X780875D1*
X869522D2*
X900944D1*
X448080Y915781D2*
X759955D1*
X890442D2*
X934101D1*
X448080Y890912D2*
X752797D1*
X897601D2*
X967259D1*
X448080Y866043D2*
X754878D1*
X895520D2*
X1000415D1*
X448080Y841175D2*
X767240D1*
X883139D2*
X1033572D1*
X448080Y816306D2*
X804990D1*
X845408D2*
X1066730D1*
X448080Y791437D2*
X1099886D1*
X448080Y766568D2*
X554608D1*
X662720D2*
X771151D1*
X879247D2*
X1133060D1*
X448080Y741699D2*
X539752D1*
X677577D2*
X756277D1*
X894102D2*
X1166218D1*
X448080Y716831D2*
X535984D1*
X681345D2*
X752509D1*
X897888D2*
X3016496D1*
X448080Y691962D2*
X541312D1*
X675999D2*
X757856D1*
X892542D2*
X3016496D1*
X448080Y667093D2*
X558770D1*
X658559D2*
X775295D1*
X875101D2*
X3016496D1*
X912295Y642224D2*
X1322673D1*
X1393861D2*
X1913238D1*
X1984407D2*
X2503783D1*
X2574954D2*
X3016496D1*
X947104Y617356D2*
X1300568D1*
X1415966D2*
X1891133D1*
X2006512D2*
X2481678D1*
X2597058D2*
X3016496D1*
X981929Y592487D2*
X1294432D1*
X1422102D2*
X1884996D1*
X2012648D2*
X2475542D1*
X2603194D2*
X3016496D1*
X1016736Y567618D2*
X1298864D1*
X1417671D2*
X1889409D1*
X2008235D2*
X2479955D1*
X2598781D2*
X3016496D1*
X1051562Y542749D2*
X1317290D1*
X1399244D2*
X1907854D1*
X1989790D2*
X2498400D1*
X2580336D2*
X3016496D1*
X1086370Y517881D2*
X3016496D1*
X1121196Y493012D2*
X3016496D1*
X1156003Y468143D2*
X3016496D1*
X894814Y875092D2*
X893022Y866084D1*
X890071Y857386D1*
X886009Y849148D1*
X880907Y841510D1*
X874850Y834605D1*
X867946Y828549D1*
X860310Y823445D1*
X852072Y819382D1*
X843375Y816429D1*
X834367Y814636D1*
X825202Y814035D1*
X816037Y814635D1*
X807029Y816427D1*
X798331Y819378D1*
X790093Y823440D1*
X782455Y828542D1*
X775550Y834598D1*
X769493Y841503D1*
X764390Y849139D1*
X760327Y857377D1*
X757374Y866073D1*
X755581Y875081D1*
X754980Y884247D1*
X755580Y893412D1*
X757371Y902420D1*
X760323Y911118D1*
X764385Y919356D1*
X769487Y926993D1*
X775543Y933899D1*
X782448Y939955D1*
X790084Y945059D1*
X798322Y949122D1*
X807018Y952075D1*
X816026Y953867D1*
X825192Y954469D1*
X834357Y953869D1*
X843365Y952077D1*
X852063Y949126D1*
X860301Y945064D1*
X867938Y939962D1*
X874844Y933906D1*
X880900Y927001D1*
X886004Y919365D1*
X890067Y911127D1*
X893020Y902430D1*
X894812Y893423D1*
X895413Y884252D1*
X894814Y875092D1*
X678278Y709738D2*
X676487Y700730D1*
X673535Y692031D1*
X669474Y683794D1*
X664371Y676156D1*
X658315Y669251D1*
X651411Y663194D1*
X643774Y658091D1*
X635537Y654028D1*
X626840Y651075D1*
X617832Y649282D1*
X608667Y648681D1*
X599501Y649281D1*
X590493Y651072D1*
X581795Y654024D1*
X573558Y658085D1*
X565920Y663188D1*
X559014Y669244D1*
X552958Y676148D1*
X547854Y683785D1*
X543791Y692022D1*
X540839Y700719D1*
X539046Y709727D1*
X538445Y718892D1*
X539045Y728058D1*
X540836Y737066D1*
X543787Y745764D1*
X547849Y754001D1*
X552951Y761639D1*
X559008Y768545D1*
X565912Y774601D1*
X573549Y779705D1*
X581786Y783768D1*
X590483Y786720D1*
X599491Y788513D1*
X608656Y789114D1*
X617822Y788514D1*
X626829Y786723D1*
X635528Y783772D1*
X643765Y779710D1*
X651403Y774608D1*
X658308Y768551D1*
X664365Y761647D1*
X669469Y754010D1*
X673531Y745773D1*
X676484Y737076D1*
X678277Y728068D1*
X678878Y718898D1*
X678278Y709738D1*
X1418940Y581399D2*
X1416898Y572458D1*
X1413546Y563923D1*
X1408961Y555980D1*
X1403241Y548812D1*
X1396518Y542575D1*
X1388941Y537409D1*
X1380677Y533432D1*
X1371915Y530730D1*
X1362846Y529364D1*
X1353676Y529365D1*
X1344608Y530732D1*
X1335844Y533437D1*
X1327583Y537417D1*
X1320005Y542584D1*
X1313283Y548823D1*
X1307567Y555992D1*
X1302983Y563936D1*
X1299634Y572472D1*
X1297593Y581413D1*
X1296909Y590558D1*
X1297596Y599703D1*
X1299638Y608644D1*
X1302990Y617180D1*
X1307575Y625122D1*
X1313294Y632290D1*
X1320017Y638528D1*
X1327594Y643693D1*
X1335858Y647671D1*
X1344621Y650373D1*
X1353689Y651739D1*
X1362860Y651738D1*
X1371928Y650370D1*
X1380692Y647665D1*
X1388953Y643685D1*
X1396530Y638518D1*
X1403252Y632280D1*
X1408969Y625110D1*
X1413552Y617167D1*
X1416902Y608630D1*
X1418942Y599689D1*
X1419626Y590551D1*
X1418940Y581399D1*
X2009491D2*
X2007449Y572458D1*
X2004097Y563923D1*
X1999512Y555980D1*
X1993793Y548812D1*
X1987070Y542575D1*
X1979492Y537409D1*
X1971228Y533432D1*
X1962466Y530730D1*
X1953398Y529364D1*
X1944227Y529365D1*
X1935159Y530732D1*
X1926395Y533437D1*
X1918134Y537417D1*
X1910556Y542584D1*
X1903835Y548823D1*
X1898118Y555992D1*
X1893534Y563936D1*
X1890185Y572472D1*
X1888144Y581413D1*
X1887461Y590558D1*
X1888147Y599703D1*
X1890189Y608644D1*
X1893541Y617180D1*
X1898126Y625122D1*
X1903845Y632290D1*
X1910568Y638528D1*
X1918146Y643693D1*
X1926409Y647671D1*
X1935172Y650373D1*
X1944240Y651739D1*
X1953411Y651738D1*
X1962479Y650370D1*
X1971243Y647665D1*
X1979504Y643685D1*
X1987081Y638518D1*
X1993803Y632280D1*
X1999520Y625110D1*
X2004104Y617167D1*
X2007453Y608630D1*
X2009493Y599689D1*
X2010177Y590551D1*
X2009491Y581399D1*
X2600042D2*
X2598000Y572458D1*
X2594648Y563923D1*
X2590063Y555980D1*
X2584344Y548812D1*
X2577621Y542575D1*
X2570043Y537409D1*
X2561780Y533432D1*
X2553017Y530730D1*
X2543949Y529364D1*
X2534778Y529365D1*
X2525710Y530732D1*
X2516946Y533437D1*
X2508685Y537417D1*
X2501108Y542584D1*
X2494386Y548823D1*
X2488669Y555992D1*
X2484085Y563936D1*
X2480736Y572472D1*
X2478696Y581413D1*
X2478012Y590558D1*
X2478698Y599703D1*
X2480740Y608644D1*
X2484092Y617180D1*
X2488677Y625122D1*
X2494396Y632290D1*
X2501119Y638528D1*
X2508697Y643693D1*
X2516961Y647671D1*
X2525723Y650373D1*
X2534791Y651739D1*
X2543962Y651738D1*
X2553030Y650370D1*
X2561794Y647665D1*
X2570055Y643685D1*
X2577633Y638518D1*
X2584354Y632280D1*
X2590071Y625110D1*
X2594655Y617167D1*
X2598004Y608630D1*
X2600045Y599689D1*
X2600728Y590551D1*
X2600042Y581399D1*
X1181114Y735531D2*
X3018996Y735535D1*
X3019001Y445571D1*
X1185114Y445567D1*
X912777Y640093D1*
X910017Y641580D1*
X905500Y642421D1*
X866650Y642420D1*
X863861Y644030D1*
X855573Y647992D1*
X847005Y651301D1*
X845507Y651799D1*
X852072Y654028D1*
X860310Y658091D1*
X867946Y663194D1*
X874850Y669251D1*
X880907Y676156D1*
X886009Y683794D1*
X890071Y692031D1*
X893022Y700730D1*
X894814Y709738D1*
X895413Y718903D1*
X894812Y728068D1*
X893020Y737076D1*
X890067Y745773D1*
X886004Y754010D1*
X880900Y761647D1*
X874844Y768551D1*
X867938Y774608D1*
X860301Y779710D1*
X852063Y783772D1*
X843365Y786723D1*
X834357Y788514D1*
X825192Y789114D1*
X816026Y788513D1*
X807018Y786720D1*
X798322Y783768D1*
X790084Y779705D1*
X782448Y774601D1*
X775543Y768545D1*
X769487Y761639D1*
X764385Y754001D1*
X760323Y745764D1*
X757371Y737066D1*
X755580Y728058D1*
X754980Y718892D1*
X755581Y709727D1*
X757374Y700719D1*
X760327Y692022D1*
X764390Y683785D1*
X769493Y676148D1*
X775550Y669244D1*
X782455Y663188D1*
X790093Y658085D1*
X793029Y656638D1*
X792631Y656589D1*
X783585Y654993D1*
X774690Y652702D1*
X765999Y649728D1*
X757564Y646091D1*
X750518Y642421D1*
X445571Y642419D1*
X445567Y1089862D1*
X704499Y1089860D1*
X755130Y1051883D1*
X754980Y1049601D1*
X755581Y1040436D1*
X757374Y1031428D1*
X760327Y1022731D1*
X764390Y1014493D1*
X769493Y1006857D1*
X775550Y999953D1*
X782455Y993896D1*
X790093Y988794D1*
X798331Y984732D1*
X807029Y981781D1*
X816037Y979990D1*
X825202Y979390D1*
X834367Y979991D1*
X843375Y981783D1*
X846967Y983004D1*
X1173602Y738031D1*
X1176328Y736480D1*
X1181114Y735531D1*
D18*
X3002756Y2125984D3*
D19*
X2902756D3*
D18*
X3002756Y1574803D3*
D19*
X2902756D3*
D21*
X1850394Y1299213D3*
D22*
Y1199213D3*
Y1099213D3*
D23*
X1567323Y2165354D3*
X1267323D3*
X1567323Y1815354D3*
X1267323D3*
X1567323Y1465354D3*
X1267323D3*
X1567323Y1115354D3*
X1267323D3*
X2637795Y2275984D3*
Y1975984D3*
Y1724803D3*
Y1424803D3*
X1811024Y1975984D3*
Y2275984D3*
X2415181Y1692680D3*
X2115181D3*
D24*
X1200787Y2637795D3*
X1397638D3*
X2381890D3*
X2578740D3*
D25*
X825197Y718898D3*
Y884252D3*
Y1049606D3*
Y1214961D3*
Y1380315D3*
Y1545669D3*
Y1711024D3*
Y1876378D3*
Y2041732D3*
Y2207087D3*
Y2372441D3*
Y2537795D3*
X608661D3*
Y2372441D3*
Y2207087D3*
Y2041732D3*
Y1876378D3*
Y1711024D3*
Y1545669D3*
Y1380315D3*
Y1214961D3*
Y1049606D3*
Y884252D3*
Y718898D3*
D24*
X1161417Y590551D3*
X1358268D3*
X1751969D3*
X1948819D3*
X2342520D3*
X2539370D3*
X2933071D3*
X3129921D3*
D26*
X2315354Y2275984D3*
D23*
X2215354D3*
X2115354D3*
X2015354D3*
Y1975984D3*
X2115354D3*
X2215354D3*
X2315354D3*
D24*
X1791339Y2637795D3*
X1988189D3*
M02*
