%TF.GenerationSoftware,Novarm,DipTrace,4.0.0.5*%
%TF.CreationDate,2022-05-21T16:57:32-06:00*%
%FSLAX26Y26*%
%MOIN*%
%TF.FileFunction,Copper,L2,Bot*%
%TF.Part,Single*%
%TA.AperFunction,Conductor*%
%ADD14C,0.012992*%
%TA.AperFunction,CopperBalancing*%
%ADD17C,0.025*%
%TA.AperFunction,ComponentPad*%
%ADD18C,0.05*%
%ADD19R,0.05X0.05*%
%ADD21R,0.076378X0.076378*%
%ADD22C,0.076378*%
%ADD23C,0.059055*%
%ADD24C,0.070866*%
%ADD25C,0.088583*%
%ADD26R,0.059055X0.059055*%
%TA.AperFunction,ViaPad*%
%ADD27C,0.04*%
G75*
G01*
%LPD*%
X608661Y884252D2*
D14*
Y1049606D1*
X825197Y884252D2*
Y1049606D1*
X1267323Y1115354D2*
Y1465354D1*
X825197Y1214961D2*
X695866Y1344291D1*
Y1786713D1*
Y1954528D1*
X608661Y2041732D1*
X825197Y1049606D2*
Y1214961D1*
X608661Y1711024D2*
Y1699508D1*
X695866Y1786713D1*
X1267323Y1815354D2*
Y2165354D1*
Y1465354D2*
Y1815354D1*
X2637795Y1424803D2*
X2630315D1*
X2559055Y1496063D1*
Y2047244D1*
X2637795Y1968504D1*
Y1975984D1*
X825197Y1876378D2*
Y1711024D1*
X2539370Y590551D2*
X2620280Y509642D1*
X3049012D1*
X3129921Y590551D1*
X608661Y2207087D2*
X533366Y2131791D1*
Y1951673D1*
X608661Y1876378D1*
X1948819Y590551D2*
X2029724Y671457D1*
X2458465D1*
X2539370Y590551D1*
X1358268D2*
X1439177Y509642D1*
X1867909D1*
X1948819Y590551D1*
X1567323Y1465354D2*
Y1115354D1*
Y1815354D2*
Y1465354D1*
Y2165354D2*
Y1815354D1*
X2637795Y1975984D2*
X2630315D1*
X2559055Y2047244D1*
Y2204724D1*
X2125984Y2637795D1*
X1988189D1*
X825197Y1711024D2*
Y1545669D1*
X608661Y2537795D2*
Y2372441D1*
X492909Y2256689D1*
Y834650D1*
X608661Y718898D1*
X825197Y2041732D2*
X821260D1*
X984252Y2204724D1*
Y2637795D1*
X1062992Y2716535D1*
X2283465D1*
X2362205Y2637795D1*
X2381890D1*
X1397638D2*
Y2460630D1*
X1574803Y2283465D1*
X2115181Y1692680D2*
Y1809646D1*
X2115354Y1809819D1*
Y1975984D1*
X2415181Y1692680D2*
X2021714Y1299213D1*
X1850394D1*
X2007874Y1456693D2*
X1692913Y1771654D1*
Y2559055D1*
X1771654Y2637795D1*
X1791339D1*
X2007874Y1456693D2*
D3*
D27*
D3*
D3*
D3*
X1574803Y2283465D3*
X763041Y1931135D2*
D17*
X1040808D1*
X763041Y1906266D2*
X1065676D1*
X763041Y1881398D2*
X1090543D1*
X763041Y1856529D2*
X1115411D1*
X763041Y1831660D2*
X1140297D1*
X763041Y1806791D2*
X1165164D1*
X763041Y1781923D2*
X1166062D1*
X763041Y1757054D2*
X1166026D1*
X763041Y1732185D2*
X1165990D1*
X763041Y1707316D2*
X1165954D1*
X763041Y1682448D2*
X1165936D1*
X763041Y1657579D2*
X1165900D1*
X763041Y1632710D2*
X1165865D1*
X763041Y1607841D2*
X1165828D1*
X763041Y1582972D2*
X1165793D1*
X763041Y1558104D2*
X1165757D1*
X763041Y1533235D2*
X1165720D1*
X763041Y1508366D2*
X1165703D1*
X763041Y1483497D2*
X1165667D1*
X884383Y1458629D2*
X1165631D1*
X909251Y1433760D2*
X1165594D1*
X934118Y1408891D2*
X1165559D1*
X958986Y1384022D2*
X1165524D1*
X959883Y1359154D2*
X1165487D1*
X959883Y1334285D2*
X1165470D1*
X959883Y1309416D2*
X1165433D1*
X959883Y1284547D2*
X1165398D1*
X959883Y1259678D2*
X1165362D1*
X959883Y1234810D2*
X1165325D1*
X959883Y1209941D2*
X1165290D1*
X959883Y1185072D2*
X1165255D1*
X959883Y1160203D2*
X1165236D1*
X959883Y1135335D2*
X1165201D1*
X959883Y1110466D2*
X1165164D1*
X959883Y1085597D2*
X1165129D1*
X959883Y1060728D2*
X1165093D1*
X959883Y1035860D2*
X1165056D1*
X959883Y1010991D2*
X1165021D1*
X959883Y986122D2*
X1198932D1*
X959883Y961253D2*
X1239552D1*
X959883Y936385D2*
X1280155D1*
X959883Y911516D2*
X1320777D1*
X959883Y886647D2*
X1361379D1*
X959883Y861778D2*
X1401982D1*
X959883Y836909D2*
X1442604D1*
X959883Y812041D2*
X1483206D1*
X959883Y787172D2*
X1523827D1*
X959883Y762303D2*
X1564430D1*
X959883Y737434D2*
X1605051D1*
X959883Y712566D2*
X3213344D1*
X959883Y687697D2*
X3213344D1*
X959883Y662828D2*
X3213344D1*
X959883Y637959D2*
X1119969D1*
X1202873D2*
X1710514D1*
X1793419D2*
X2301060D1*
X2383965D2*
X2891625D1*
X2974529D2*
X3213344D1*
X959883Y613091D2*
X1101846D1*
X1220995D2*
X1692392D1*
X1811541D2*
X2282957D1*
X2402087D2*
X2873503D1*
X2992633D2*
X3213344D1*
X973412Y588222D2*
X1097594D1*
X1225228D2*
X1688159D1*
X1815774D2*
X2278705D1*
X2406339D2*
X2869251D1*
X2996885D2*
X3213344D1*
X1010713Y563353D2*
X1103911D1*
X1218913D2*
X1694474D1*
X1809478D2*
X2285020D1*
X2400024D2*
X2875567D1*
X2990570D2*
X3213344D1*
X1048014Y538484D2*
X1126445D1*
X1196378D2*
X1717009D1*
X1786924D2*
X2307555D1*
X2377488D2*
X2898101D1*
X2968034D2*
X3213344D1*
X1085316Y513615D2*
X3213344D1*
X1122618Y488747D2*
X3213344D1*
X1159920Y463878D2*
X3213344D1*
X1222089Y581399D2*
X1220047Y572458D1*
X1216696Y563923D1*
X1212110Y555980D1*
X1206391Y548812D1*
X1199668Y542575D1*
X1192091Y537409D1*
X1183827Y533432D1*
X1175064Y530730D1*
X1165996Y529364D1*
X1156825Y529365D1*
X1147757Y530732D1*
X1138993Y533437D1*
X1130732Y537417D1*
X1123155Y542584D1*
X1116433Y548823D1*
X1110717Y555992D1*
X1106133Y563936D1*
X1102783Y572472D1*
X1100743Y581413D1*
X1100059Y590558D1*
X1100745Y599703D1*
X1102787Y608644D1*
X1106139Y617180D1*
X1110724Y625122D1*
X1116444Y632290D1*
X1123167Y638528D1*
X1130744Y643693D1*
X1139008Y647671D1*
X1147770Y650373D1*
X1156839Y651739D1*
X1166009Y651738D1*
X1175077Y650370D1*
X1183841Y647665D1*
X1192102Y643685D1*
X1199680Y638518D1*
X1206402Y632280D1*
X1212118Y625110D1*
X1216702Y617167D1*
X1220051Y608630D1*
X1222092Y599689D1*
X1222776Y590551D1*
X1222089Y581399D1*
X1812640D2*
X1810598Y572458D1*
X1807247Y563923D1*
X1802661Y555980D1*
X1796942Y548812D1*
X1790219Y542575D1*
X1782642Y537409D1*
X1774378Y533432D1*
X1765615Y530730D1*
X1756547Y529364D1*
X1747377Y529365D1*
X1738308Y530732D1*
X1729545Y533437D1*
X1721283Y537417D1*
X1713706Y542584D1*
X1706984Y548823D1*
X1701268Y555992D1*
X1696684Y563936D1*
X1693335Y572472D1*
X1691294Y581413D1*
X1690610Y590558D1*
X1691297Y599703D1*
X1693339Y608644D1*
X1696690Y617180D1*
X1701276Y625122D1*
X1706995Y632290D1*
X1713718Y638528D1*
X1721295Y643693D1*
X1729559Y647671D1*
X1738322Y650373D1*
X1747390Y651739D1*
X1756560Y651738D1*
X1765629Y650370D1*
X1774392Y647665D1*
X1782654Y643685D1*
X1790231Y638518D1*
X1796953Y632280D1*
X1802669Y625110D1*
X1807253Y617167D1*
X1810602Y608630D1*
X1812643Y599689D1*
X1813327Y590551D1*
X1812640Y581399D1*
X2403192D2*
X2401150Y572458D1*
X2397798Y563923D1*
X2393213Y555980D1*
X2387493Y548812D1*
X2380770Y542575D1*
X2373193Y537409D1*
X2364929Y533432D1*
X2356167Y530730D1*
X2347098Y529364D1*
X2337928Y529365D1*
X2328860Y530732D1*
X2320096Y533437D1*
X2311835Y537417D1*
X2304257Y542584D1*
X2297535Y548823D1*
X2291819Y555992D1*
X2287235Y563936D1*
X2283886Y572472D1*
X2281845Y581413D1*
X2281161Y590558D1*
X2281848Y599703D1*
X2283890Y608644D1*
X2287241Y617180D1*
X2291827Y625122D1*
X2297546Y632290D1*
X2304269Y638528D1*
X2311846Y643693D1*
X2320110Y647671D1*
X2328873Y650373D1*
X2337941Y651739D1*
X2347112Y651738D1*
X2356180Y650370D1*
X2364944Y647665D1*
X2373205Y643685D1*
X2380782Y638518D1*
X2387504Y632280D1*
X2393220Y625110D1*
X2397804Y617167D1*
X2401154Y608630D1*
X2403194Y599689D1*
X2403878Y590551D1*
X2403192Y581399D1*
X2993743D2*
X2991701Y572458D1*
X2988349Y563923D1*
X2983764Y555980D1*
X2978045Y548812D1*
X2971322Y542575D1*
X2963744Y537409D1*
X2955480Y533432D1*
X2946718Y530730D1*
X2937650Y529364D1*
X2928479Y529365D1*
X2919411Y530732D1*
X2910647Y533437D1*
X2902386Y537417D1*
X2894808Y542584D1*
X2888087Y548823D1*
X2882370Y555992D1*
X2877786Y563936D1*
X2874437Y572472D1*
X2872396Y581413D1*
X2871713Y590558D1*
X2872399Y599703D1*
X2874441Y608644D1*
X2877793Y617180D1*
X2882378Y625122D1*
X2888097Y632290D1*
X2894820Y638528D1*
X2902398Y643693D1*
X2910661Y647671D1*
X2919424Y650373D1*
X2928492Y651739D1*
X2937663Y651738D1*
X2946731Y650370D1*
X2955495Y647665D1*
X2963756Y643685D1*
X2971333Y638518D1*
X2978055Y632280D1*
X2983772Y625110D1*
X2988356Y617167D1*
X2991705Y608630D1*
X2993745Y599689D1*
X2994429Y590551D1*
X2993743Y581399D1*
X1018446Y1956004D2*
X760528D1*
X760531Y1469199D1*
X866142Y1469193D1*
X871938Y1467766D1*
X881542Y1458970D1*
X953720Y1386791D1*
X956811Y1381685D1*
X957382Y1368766D1*
Y597248D1*
X1134999Y478831D1*
X1184890Y445570D1*
X3215841Y445571D1*
X3215846Y735535D1*
X1772949Y735531D1*
X1614173D1*
X1608377Y736958D1*
X1592059Y746916D1*
X1173504Y1003230D1*
X1169307Y1007467D1*
X1167554Y1013173D1*
X1167556Y1032151D1*
X1168596Y1805846D1*
X1018450Y1955997D1*
D18*
X3002756Y2125984D3*
D19*
X2902756D3*
D18*
X3002756Y1574803D3*
D19*
X2902756D3*
D21*
X1850394Y1299213D3*
D22*
Y1199213D3*
Y1099213D3*
D23*
X1567323Y2165354D3*
X1267323D3*
X1567323Y1815354D3*
X1267323D3*
X1567323Y1465354D3*
X1267323D3*
X1567323Y1115354D3*
X1267323D3*
X2637795Y2275984D3*
Y1975984D3*
Y1724803D3*
Y1424803D3*
X1811024Y1975984D3*
Y2275984D3*
X2415181Y1692680D3*
X2115181D3*
D24*
X1200787Y2637795D3*
X1397638D3*
X2381890D3*
X2578740D3*
D25*
X825197Y718898D3*
Y884252D3*
Y1049606D3*
Y1214961D3*
Y1380315D3*
Y1545669D3*
Y1711024D3*
Y1876378D3*
Y2041732D3*
Y2207087D3*
Y2372441D3*
Y2537795D3*
X608661D3*
Y2372441D3*
Y2207087D3*
Y2041732D3*
Y1876378D3*
Y1711024D3*
Y1545669D3*
Y1380315D3*
Y1214961D3*
Y1049606D3*
Y884252D3*
Y718898D3*
D24*
X1161417Y590551D3*
X1358268D3*
X1751969D3*
X1948819D3*
X2342520D3*
X2539370D3*
X2933071D3*
X3129921D3*
D26*
X2315354Y2275984D3*
D23*
X2215354D3*
X2115354D3*
X2015354D3*
Y1975984D3*
X2115354D3*
X2215354D3*
X2315354D3*
D24*
X1791339Y2637795D3*
X1988189D3*
M02*
