%TF.GenerationSoftware,Novarm,DipTrace,4.0.0.5*%
%TF.CreationDate,2022-05-21T16:57:33-06:00*%
%FSLAX26Y26*%
%MOIN*%
%TF.FileFunction,Soldermask,Bot*%
%TF.Part,Single*%
%ADD29C,0.185039*%
%ADD30C,0.167323*%
%ADD39R,0.062992X0.062992*%
%ADD41C,0.09252*%
%ADD43C,0.074803*%
%ADD45C,0.062992*%
%ADD47C,0.080315*%
%ADD49R,0.080315X0.080315*%
%ADD51R,0.053937X0.053937*%
%ADD53C,0.053937*%
G75*
G01*
%LPD*%
D53*
X3002756Y2125984D3*
D51*
X2902756D3*
D53*
X3002756Y1574803D3*
D51*
X2902756D3*
D49*
X1850394Y1299213D3*
D47*
Y1199213D3*
Y1099213D3*
D45*
X1567323Y2165354D3*
X1267323D3*
X1567323Y1815354D3*
X1267323D3*
X1567323Y1465354D3*
X1267323D3*
X1567323Y1115354D3*
X1267323D3*
X2637795Y2275984D3*
Y1975984D3*
Y1724803D3*
Y1424803D3*
X1811024Y1975984D3*
Y2275984D3*
X2415181Y1692680D3*
X2115181D3*
D43*
X1200787Y2637795D3*
X1397638D3*
X2381890D3*
X2578740D3*
D41*
X825197Y718898D3*
Y884252D3*
Y1049606D3*
Y1214961D3*
Y1380315D3*
Y1545669D3*
Y1711024D3*
Y1876378D3*
Y2041732D3*
Y2207087D3*
Y2372441D3*
Y2537795D3*
X608661D3*
Y2372441D3*
Y2207087D3*
Y2041732D3*
Y1876378D3*
Y1711024D3*
Y1545669D3*
Y1380315D3*
Y1214961D3*
Y1049606D3*
Y884252D3*
Y718898D3*
D29*
X808661Y539234D3*
Y2721060D3*
D43*
X1161417Y590551D3*
X1358268D3*
X1751969D3*
X1948819D3*
X2342520D3*
X2539370D3*
X2933071D3*
X3129921D3*
D39*
X2315354Y2275984D3*
D45*
X2215354D3*
X2115354D3*
X2015354D3*
Y1975984D3*
X2115354D3*
X2215354D3*
X2315354D3*
D43*
X1791339Y2637795D3*
X1988189D3*
D30*
X2992126D3*
Y1141732D3*
M02*
