%TF.GenerationSoftware,Novarm,DipTrace,4.0.0.5*%
%TF.CreationDate,2022-05-21T16:57:36-06:00*%
%FSLAX26Y26*%
%MOIN*%
%TF.FileFunction,Plated,1,2,PTH,Drill*%
%TF.Part,Single*%
%TA.AperFunction,ComponentDrill*%
%ADD16C,0.03937*%
%TA.AperFunction,ViaDrill*%
%ADD27C,0.019121*%
%TA.AperFunction,ComponentDrill*%
%ADD30C,0.028005*%
%ADD31C,0.050787*%
%ADD32C,0.035433*%
%ADD33C,0.051181*%
%ADD34C,0.055118*%
G75*
G01*
D30*
X3002756Y2125984D3*
X2902756D3*
X3002756Y1574803D3*
X2902756D3*
D31*
X1850394Y1299213D3*
Y1199213D3*
Y1099213D3*
D16*
X1567323Y2165354D3*
X1267323D3*
X1567323Y1815354D3*
X1267323D3*
X1567323Y1465354D3*
X1267323D3*
X1567323Y1115354D3*
X1267323D3*
D32*
X2637795Y2275984D3*
Y1975984D3*
Y1724803D3*
Y1424803D3*
X1811024Y1975984D3*
Y2275984D3*
X2415181Y1692680D3*
X2115181D3*
D33*
X1200787Y2637795D3*
X1397638D3*
X2381890D3*
X2578740D3*
D34*
X825197Y718898D3*
Y884252D3*
Y1049606D3*
Y1214961D3*
Y1380315D3*
Y1545669D3*
Y1711024D3*
Y1876378D3*
Y2041732D3*
Y2207087D3*
Y2372441D3*
Y2537795D3*
X608661D3*
Y2372441D3*
Y2207087D3*
Y2041732D3*
Y1876378D3*
Y1711024D3*
Y1545669D3*
Y1380315D3*
Y1214961D3*
Y1049606D3*
Y884252D3*
Y718898D3*
D33*
X1161417Y590551D3*
X1358268D3*
X1751969D3*
X1948819D3*
X2342520D3*
X2539370D3*
X2933071D3*
X3129921D3*
D32*
X2315354Y2275984D3*
X2215354D3*
X2115354D3*
X2015354D3*
Y1975984D3*
X2115354D3*
X2215354D3*
X2315354D3*
D33*
X1791339Y2637795D3*
X1988189D3*
D27*
X2007874Y1456693D3*
X1574803Y2283465D3*
X2007874Y1456693D3*
M02*
