%TF.GenerationSoftware,Novarm,DipTrace,4.0.0.5*%
%TF.CreationDate,2022-05-21T16:57:35-06:00*%
%FSLAX26Y26*%
%MOIN*%
%TF.FileFunction,Drawing,Top*%
%TF.Part,Single*%
%ADD13C,0.001181*%
%ADD57C,0.006176*%
G75*
G01*
%LPD*%
X393701Y2874016D2*
D13*
Y3090551D1*
X3307087Y2874016D2*
Y3090551D1*
X1850394Y3070866D2*
X433071D1*
G36*
X393701D2*
X433071Y3078740D1*
Y3062992D1*
X393701Y3070866D1*
G37*
X1850394D2*
D13*
X3267717D1*
G36*
X3307087D2*
X3267717Y3062992D1*
Y3078740D1*
X3307087Y3070866D1*
G37*
Y393701D2*
D13*
X3562992D1*
X3307087Y2874016D2*
X3562992D1*
X3543307Y1633858D2*
Y433071D1*
G36*
Y393701D2*
X3535433Y433071D1*
X3551181D1*
X3543307Y393701D1*
G37*
Y1633858D2*
D13*
Y2834646D1*
G36*
Y2874016D2*
X3551181Y2834646D1*
X3535433D1*
X3543307Y2874016D1*
G37*
X1827210Y3083077D2*
D57*
X1846355Y3123225D1*
X1819561D1*
X1877852Y3083077D2*
Y3123225D1*
X1858707Y3096474D1*
X1887403D1*
X3589962Y1639820D2*
X3593764Y1641721D1*
X3595666Y1647469D1*
Y1651272D1*
X3593764Y1657020D1*
X3588016Y1660867D1*
X3578466Y1662768D1*
X3568915D1*
X3561266Y1660867D1*
X3557419Y1657020D1*
X3555518Y1651272D1*
Y1649371D1*
X3557419Y1643667D1*
X3561266Y1639820D1*
X3567014Y1637919D1*
X3568915D1*
X3574663Y1639820D1*
X3578466Y1643667D1*
X3580367Y1649371D1*
Y1651272D1*
X3578466Y1657020D1*
X3574663Y1660867D1*
X3568915Y1662768D1*
X3595666Y1621721D2*
Y1600718D1*
X3580367Y1612170D1*
Y1606422D1*
X3578466Y1602620D1*
X3576564Y1600718D1*
X3570816Y1598773D1*
X3567014D1*
X3561266Y1600718D1*
X3557419Y1604521D1*
X3555518Y1610269D1*
Y1616017D1*
X3557419Y1621721D1*
X3559365Y1623622D1*
X3563167Y1625567D1*
M02*
