%TF.GenerationSoftware,Novarm,DipTrace,4.0.0.5*%
%TF.CreationDate,2022-05-21T16:57:30-06:00*%
%FSLAX26Y26*%
%MOIN*%
%TF.FileFunction,Legend,Top*%
%TF.Part,Single*%
%ADD10C,0.004724*%
%ADD55C,0.00772*%
%ADD56C,0.015439*%
G75*
G01*
%LPD*%
X2852762Y2051046D2*
D10*
Y2200923D1*
X2852987Y2050747D2*
G03X2852987Y2201222I99796J75238D01*
G01*
X2852762Y1499865D2*
Y1649741D1*
X2852987Y1499566D2*
G03X2852987Y1650041I99796J75238D01*
G01*
X1955000Y1406496D2*
X1764843D1*
Y991929D1*
X1955000D1*
Y1406496D1*
G36*
X1747913Y1309055D2*
X1749198Y1308971D1*
X1750461Y1308720D1*
X1751680Y1308306D1*
X1752835Y1307736D1*
X1753905Y1307021D1*
X1754873Y1306172D1*
X1755722Y1305204D1*
X1756437Y1304134D1*
X1757007Y1302979D1*
X1757421Y1301760D1*
X1757672Y1300497D1*
X1757756Y1299213D1*
X1757672Y1297928D1*
X1757421Y1296665D1*
X1757007Y1295446D1*
X1756437Y1294291D1*
X1755722Y1293221D1*
X1754873Y1292253D1*
X1753905Y1291404D1*
X1752835Y1290689D1*
X1751680Y1290119D1*
X1750461Y1289705D1*
X1749198Y1289454D1*
X1747913Y1289370D1*
D1*
X1746629Y1289454D1*
X1745366Y1289705D1*
X1744147Y1290119D1*
X1742992Y1290689D1*
X1741922Y1291404D1*
X1740954Y1292253D1*
X1740105Y1293221D1*
X1739390Y1294291D1*
X1738820Y1295446D1*
X1738406Y1296665D1*
X1738155Y1297928D1*
X1738071Y1299213D1*
X1738155Y1300497D1*
X1738406Y1301760D1*
X1738820Y1302979D1*
X1739390Y1304134D1*
X1740105Y1305204D1*
X1740954Y1306172D1*
X1741922Y1307021D1*
X1742992Y1307736D1*
X1744147Y1308306D1*
X1745366Y1308720D1*
X1746629Y1308971D1*
X1747913Y1309055D1*
D1*
G37*
X1497472Y2135354D2*
D10*
Y2195354D1*
X1337173Y2135354D2*
X1497472D1*
X1337173D2*
Y2195354D1*
X1497472D1*
Y1785354D2*
Y1845354D1*
X1337173Y1785354D2*
X1497472D1*
X1337173D2*
Y1845354D1*
X1497472D1*
Y1435354D2*
Y1495354D1*
X1337173Y1435354D2*
X1497472D1*
X1337173D2*
Y1495354D1*
X1497472D1*
Y1085354D2*
Y1145354D1*
X1337173Y1085354D2*
X1497472D1*
X1337173D2*
Y1145354D1*
X1497472D1*
X2667795Y2206134D2*
X2607795D1*
X2667795Y2045835D2*
Y2206134D1*
Y2045835D2*
X2607795D1*
Y2206134D1*
X2667795Y1654953D2*
X2607795D1*
X2667795Y1494654D2*
Y1654953D1*
Y1494654D2*
X2607795D1*
Y1654953D1*
X1781024Y2045835D2*
X1841024D1*
X1781024Y2206134D2*
Y2045835D1*
Y2206134D2*
X1841024D1*
Y2045835D1*
X2345331Y1662680D2*
Y1722680D1*
X2185031Y1662680D2*
X2345331D1*
X2185031D2*
Y1722680D1*
X2345331D1*
X1099213Y2537795D2*
Y2737795D1*
X1499213D1*
Y2537795D1*
X1099213D1*
X2280315D2*
Y2737795D1*
X2680315D1*
Y2537795D1*
X2280315D1*
X533661Y653571D2*
Y2603621D1*
X908646Y653571D2*
Y2603621D1*
X533661Y653571D2*
X908646D1*
X533661Y2603621D2*
X908646D1*
X1059843Y490551D2*
Y690551D1*
X1459843D1*
Y490551D1*
X1059843D1*
X1650394D2*
Y690551D1*
X2050394D1*
Y490551D1*
X1650394D1*
X2240945D2*
Y690551D1*
X2640945D1*
Y490551D1*
X2240945D1*
X2831496D2*
Y690551D1*
X3231496D1*
Y490551D1*
X2831496D1*
X2362205Y2023618D2*
X1968504D1*
Y2228350D2*
Y2023618D1*
X2362205Y2228350D2*
X1968504D1*
X2362205D2*
Y2149610D1*
Y2023618D2*
Y2102358D1*
Y2149610D2*
G03X2362205Y2102358I4J-23626D01*
G01*
X1689764Y2537795D2*
Y2737795D1*
X2089764D1*
Y2537795D1*
X1689764D1*
X1324932Y916841D2*
D56*
Y849855D1*
Y902471D2*
X1315426Y912088D1*
X1305809Y916841D1*
X1291549D1*
X1281932Y912088D1*
X1272426Y902471D1*
X1267562Y888101D1*
Y878595D1*
X1272426Y864225D1*
X1281932Y854718D1*
X1291549Y849855D1*
X1305809D1*
X1315426Y854718D1*
X1324932Y864225D1*
X1355810Y916841D2*
Y849855D1*
Y888101D2*
X1360674Y902471D1*
X1370180Y912088D1*
X1379797Y916841D1*
X1394167D1*
X1425046D2*
Y849855D1*
Y888101D2*
X1429910Y902471D1*
X1439416Y912088D1*
X1449033Y916841D1*
X1463403D1*
X1518158D2*
X1508652Y912088D1*
X1499035Y902471D1*
X1494282Y888101D1*
Y878595D1*
X1499035Y864225D1*
X1508652Y854718D1*
X1518158Y849855D1*
X1532528D1*
X1542145Y854718D1*
X1551651Y864225D1*
X1556515Y878595D1*
Y888101D1*
X1551651Y902471D1*
X1542145Y912088D1*
X1532528Y916841D1*
X1518158D1*
X1587393D2*
Y849855D1*
Y897718D2*
X1601764Y912088D1*
X1611380Y916841D1*
X1625640D1*
X1635257Y912088D1*
X1640010Y897718D1*
Y849855D1*
X1723505Y926348D2*
X1709135D1*
X1699629Y921594D1*
X1694765Y916841D1*
X1690012Y907224D1*
Y888101D1*
X1694765Y883348D1*
X1704382D1*
X1723505Y888101D1*
X1728258Y878595D1*
X1733012D1*
X1742628Y888101D1*
X1747382Y911978D1*
X1742628Y926348D1*
X1737875Y935965D1*
X1728258Y945471D1*
X1718752Y950224D1*
X1699629D1*
X1690012Y945471D1*
X1680505Y935965D1*
X1675642Y926348D1*
X1670889Y911978D1*
Y888101D1*
X1675642Y873731D1*
X1680505Y864225D1*
X1690012Y854608D1*
X1699629Y849855D1*
X1718752D1*
X1728258Y854608D1*
X1737875Y864225D1*
X1723505Y931101D2*
Y888101D1*
X1835630Y916841D2*
Y849855D1*
Y902471D2*
X1826124Y912088D1*
X1816507Y916841D1*
X1802247D1*
X1792630Y912088D1*
X1783124Y902471D1*
X1778260Y888101D1*
Y878595D1*
X1783124Y864225D1*
X1792630Y854718D1*
X1802247Y849855D1*
X1816507D1*
X1826124Y854718D1*
X1835630Y864225D1*
X1866508Y916841D2*
Y849855D1*
Y888101D2*
X1871372Y902471D1*
X1880878Y912088D1*
X1890495Y916841D1*
X1904865D1*
X1935744D2*
Y849855D1*
Y888101D2*
X1940608Y902471D1*
X1950114Y912088D1*
X1959731Y916841D1*
X1974101D1*
X2028856D2*
X2019350Y912088D1*
X2009733Y902471D1*
X2004979Y888101D1*
Y878595D1*
X2009733Y864225D1*
X2019350Y854718D1*
X2028856Y849855D1*
X2043226D1*
X2052843Y854718D1*
X2062349Y864225D1*
X2067213Y878595D1*
Y888101D1*
X2062349Y902471D1*
X2052843Y912088D1*
X2043226Y916841D1*
X2028856D1*
X2098091D2*
Y849855D1*
Y897718D2*
X2112462Y912088D1*
X2122078Y916841D1*
X2136338D1*
X2145955Y912088D1*
X2150708Y897718D1*
Y849855D1*
X2239067Y902471D2*
X2229450Y912088D1*
X2219833Y916841D1*
X2205574D1*
X2195957Y912088D1*
X2186450Y902471D1*
X2181587Y888101D1*
Y878595D1*
X2186450Y864225D1*
X2195957Y854718D1*
X2205574Y849855D1*
X2219833D1*
X2229450Y854718D1*
X2239067Y864225D1*
X2269945Y950335D2*
Y849855D1*
Y897718D2*
X2284315Y912088D1*
X2293932Y916841D1*
X2308302D1*
X2317809Y912088D1*
X2322562Y897718D1*
Y849855D1*
X2410810Y916841D2*
Y849855D1*
Y902471D2*
X2401304Y912088D1*
X2391687Y916841D1*
X2377427D1*
X2367811Y912088D1*
X2358304Y902471D1*
X2353440Y888101D1*
Y878595D1*
X2358304Y864225D1*
X2367811Y854718D1*
X2377427Y849855D1*
X2391687D1*
X2401304Y854718D1*
X2410810Y864225D1*
X2441689Y916841D2*
Y816361D1*
Y902471D2*
X2451306Y911978D1*
X2460812Y916841D1*
X2475182D1*
X2484799Y911978D1*
X2494305Y902471D1*
X2499169Y888101D1*
Y878484D1*
X2494305Y864225D1*
X2484799Y854608D1*
X2475182Y849855D1*
X2460812D1*
X2451306Y854608D1*
X2441689Y864225D1*
X2530048Y916841D2*
Y849855D1*
Y897718D2*
X2544418Y912088D1*
X2554035Y916841D1*
X2568294D1*
X2577911Y912088D1*
X2582664Y897718D1*
Y849855D1*
Y897718D2*
X2597034Y912088D1*
X2606651Y916841D1*
X2620911D1*
X2630528Y912088D1*
X2635391Y897718D1*
Y849855D1*
X2723640Y916841D2*
Y849855D1*
Y902471D2*
X2714133Y912088D1*
X2704516Y916841D1*
X2690257D1*
X2680640Y912088D1*
X2671133Y902471D1*
X2666270Y888101D1*
Y878595D1*
X2671133Y864225D1*
X2680640Y854718D1*
X2690257Y849855D1*
X2704516D1*
X2714133Y854718D1*
X2723640Y864225D1*
X2754518Y916841D2*
Y849855D1*
Y897718D2*
X2768888Y912088D1*
X2778505Y916841D1*
X2792765D1*
X2802381Y912088D1*
X2807135Y897718D1*
Y849855D1*
X2842766Y859471D2*
X2838013Y854608D1*
X2842766Y849855D1*
X2847630Y854608D1*
X2842766Y859471D1*
X2935989Y902471D2*
X2926372Y912088D1*
X2916755Y916841D1*
X2902495D1*
X2892879Y912088D1*
X2883372Y902471D1*
X2878509Y888101D1*
Y878595D1*
X2883372Y864225D1*
X2892879Y854718D1*
X2902495Y849855D1*
X2916755D1*
X2926372Y854718D1*
X2935989Y864225D1*
X2990744Y916841D2*
X2981237Y912088D1*
X2971620Y902471D1*
X2966867Y888101D1*
Y878595D1*
X2971620Y864225D1*
X2981237Y854718D1*
X2990744Y849855D1*
X3005114D1*
X3014731Y854718D1*
X3024237Y864225D1*
X3029101Y878595D1*
Y888101D1*
X3024237Y902471D1*
X3014731Y912088D1*
X3005114Y916841D1*
X2990744D1*
X3059979D2*
Y849855D1*
Y897718D2*
X3074349Y912088D1*
X3083966Y916841D1*
X3098226D1*
X3107843Y912088D1*
X3112596Y897718D1*
Y849855D1*
Y897718D2*
X3126966Y912088D1*
X3136583Y916841D1*
X3150842D1*
X3160459Y912088D1*
X3165323Y897718D1*
Y849855D1*
X2212444Y1138692D2*
X2255444D1*
X2269814Y1143555D1*
X2274678Y1148309D1*
X2279431Y1157815D1*
Y1167432D1*
X2274678Y1176938D1*
X2269814Y1181802D1*
X2255444Y1186555D1*
X2212444D1*
Y1086075D1*
X2245937Y1138692D2*
X2279431Y1086075D1*
X2310309Y1124322D2*
X2367679D1*
Y1133938D1*
X2362926Y1143555D1*
X2358173Y1148309D1*
X2348556Y1153062D1*
X2334186D1*
X2324679Y1148309D1*
X2315062Y1138692D1*
X2310309Y1124322D1*
Y1114815D1*
X2315062Y1100445D1*
X2324679Y1090939D1*
X2334186Y1086075D1*
X2348556D1*
X2358173Y1090939D1*
X2367679Y1100445D1*
X2398557Y1153062D2*
X2427298Y1086075D1*
X2455927Y1153062D1*
X2491559Y1095692D2*
X2486806Y1090828D1*
X2491559Y1086075D1*
X2496423Y1090828D1*
X2491559Y1095692D1*
X2624503Y1186555D2*
Y1086075D1*
X2667613D1*
X2681983Y1090939D1*
X2686737Y1095692D1*
X2691490Y1105198D1*
Y1119568D1*
X2686737Y1129185D1*
X2681983Y1133938D1*
X2667613Y1138692D1*
X2681983Y1143555D1*
X2686737Y1148309D1*
X2691490Y1157815D1*
Y1167432D1*
X2686737Y1176938D1*
X2681983Y1181802D1*
X2667613Y1186555D1*
X2624503D1*
Y1138692D2*
X2667613D1*
X2934799Y2324186D2*
D55*
Y2273946D1*
X2951546D1*
X2958731Y2276378D1*
X2963540Y2281131D1*
X2965916Y2285940D1*
X2968293Y2293070D1*
Y2305063D1*
X2965916Y2312248D1*
X2963540Y2317001D1*
X2958731Y2321810D1*
X2951546Y2324186D1*
X2934799D1*
X2983732Y2314569D2*
X2988540Y2317001D1*
X2995726Y2324131D1*
Y2273946D1*
X2835120Y1957738D2*
X2856675D1*
X2863805Y1960115D1*
X2866237Y1962547D1*
X2868613Y1967300D1*
Y1974485D1*
X2866237Y1979238D1*
X2863805Y1981670D1*
X2856675Y1984047D1*
X2835120D1*
Y1933807D1*
X2884052Y1984047D2*
X2896046Y1933807D1*
X2907984Y1984047D1*
X2919922Y1933807D1*
X2931916Y1984047D1*
X2947355Y1925516D2*
X2992787D1*
X3022596Y1984047D2*
X3017788Y1981670D1*
X3013034Y1976862D1*
X3010603Y1972108D1*
X3008226Y1964923D1*
Y1952930D1*
X3010603Y1945800D1*
X3013034Y1940992D1*
X3017788Y1936238D1*
X3022596Y1933807D1*
X3032158D1*
X3036911Y1936238D1*
X3041719Y1940992D1*
X3044096Y1945800D1*
X3046472Y1952930D1*
Y1964923D1*
X3044096Y1972108D1*
X3041719Y1976862D1*
X3036911Y1981670D1*
X3032158Y1984047D1*
X3022596D1*
X3061912D2*
Y1933807D1*
X3095405Y1984047D2*
X3061912Y1950553D1*
X3073850Y1962547D2*
X3095405Y1933807D1*
X2924050Y1773005D2*
Y1722765D1*
X2940796D1*
X2947981Y1725197D1*
X2952790Y1729950D1*
X2955166Y1734759D1*
X2957543Y1741888D1*
Y1753882D1*
X2955166Y1761067D1*
X2952790Y1765820D1*
X2947981Y1770629D1*
X2940796Y1773005D1*
X2924050D1*
X2977791Y1772950D2*
X3004044D1*
X2989729Y1753827D1*
X2996914D1*
X3001667Y1751450D1*
X3004044Y1749074D1*
X3006475Y1741888D1*
Y1737135D1*
X3004044Y1729950D1*
X2999290Y1725142D1*
X2992105Y1722765D1*
X2984920D1*
X2977791Y1725142D1*
X2975414Y1727574D1*
X2972982Y1732327D1*
X2906234Y1425680D2*
X2901480Y1430489D1*
X2894295Y1432865D1*
X2884734D1*
X2877549Y1430489D1*
X2872740Y1425680D1*
Y1420927D1*
X2875172Y1416119D1*
X2877549Y1413742D1*
X2882302Y1411366D1*
X2896672Y1406557D1*
X2901480Y1404181D1*
X2903857Y1401749D1*
X2906234Y1396996D1*
Y1389810D1*
X2901480Y1385057D1*
X2894295Y1382625D1*
X2884734D1*
X2877549Y1385057D1*
X2872740Y1389810D1*
X2921673Y1432865D2*
Y1382625D1*
X2938420D1*
X2945605Y1385057D1*
X2950413Y1389810D1*
X2952790Y1394619D1*
X2955166Y1401749D1*
Y1413742D1*
X2952790Y1420927D1*
X2950413Y1425680D1*
X2945605Y1430489D1*
X2938420Y1432865D1*
X2921673D1*
X2970606D2*
Y1382625D1*
X2992161D1*
X2999346Y1385057D1*
X3001722Y1387434D1*
X3004099Y1392187D1*
Y1399372D1*
X3001722Y1404181D1*
X2999346Y1406557D1*
X2992161Y1408934D1*
X2999346Y1411366D1*
X3001722Y1413742D1*
X3004099Y1418495D1*
Y1423304D1*
X3001722Y1428057D1*
X2999346Y1430489D1*
X2992161Y1432865D1*
X2970606D1*
Y1408934D2*
X2992161D1*
X3019538Y1432865D2*
X3038661Y1408934D1*
Y1382625D1*
X3057785Y1432865D2*
X3038661Y1408934D1*
X2038262Y1217710D2*
X2035941Y1222463D1*
X2031133Y1227271D1*
X2026324Y1229648D1*
X2019139Y1232080D1*
X2007201D1*
X2000016Y1229648D1*
X1995263Y1227271D1*
X1990454Y1222463D1*
X1988078Y1217710D1*
Y1208148D1*
X1990454Y1203340D1*
X1995263Y1198587D1*
X2000016Y1196210D1*
X2007201Y1193778D1*
X2019139D1*
X2026324Y1196210D1*
X2031133Y1198587D1*
X2035941Y1203340D1*
X2038262Y1208148D1*
Y1217710D1*
X1997639Y1210525D2*
X1983269Y1196210D1*
X2028646Y1178339D2*
X2031077Y1173530D1*
X2038207Y1166345D1*
X1988022D1*
X1386860Y2244646D2*
X1408360D1*
X1415545Y2247078D1*
X1417977Y2249454D1*
X1420353Y2254207D1*
Y2259016D1*
X1417977Y2263769D1*
X1415545Y2266201D1*
X1408360Y2268577D1*
X1386860D1*
Y2218337D1*
X1403606Y2244646D2*
X1420353Y2218337D1*
X1435792Y2258961D2*
X1440601Y2261392D1*
X1447786Y2268522D1*
Y2218337D1*
X1292246Y2068156D2*
Y2118340D1*
X1268314Y2084902D1*
X1304184D1*
X1322000Y2072964D2*
X1319623Y2070532D1*
X1322000Y2068156D1*
X1324432Y2070532D1*
X1322000Y2072964D1*
X1349433Y2068156D2*
X1373365Y2118340D1*
X1339871D1*
X1388804Y2118396D2*
Y2068156D1*
X1412735Y2101649D2*
X1388804Y2077717D1*
X1398365Y2087279D2*
X1415112Y2068156D1*
X1481584Y2106402D2*
Y2108779D1*
X1483961Y2113587D1*
X1486337Y2115964D1*
X1491146Y2118340D1*
X1500707D1*
X1505461Y2115964D1*
X1507837Y2113587D1*
X1510269Y2108779D1*
Y2104026D1*
X1507837Y2099217D1*
X1503084Y2092087D1*
X1479152Y2068156D1*
X1512646D1*
X1528085Y2101649D2*
X1537646Y2068156D1*
X1547208Y2101649D1*
X1556770Y2068156D1*
X1566331Y2101649D1*
X1376110Y1894646D2*
X1397610D1*
X1404795Y1897078D1*
X1407227Y1899454D1*
X1409603Y1904207D1*
Y1909016D1*
X1407227Y1913769D1*
X1404795Y1916201D1*
X1397610Y1918577D1*
X1376110D1*
Y1868337D1*
X1392857Y1894646D2*
X1409603Y1868337D1*
X1427474Y1906584D2*
Y1908961D1*
X1429851Y1913769D1*
X1432227Y1916146D1*
X1437036Y1918522D1*
X1446598D1*
X1451351Y1916146D1*
X1453727Y1913769D1*
X1456159Y1908961D1*
Y1904207D1*
X1453727Y1899399D1*
X1448974Y1892269D1*
X1425042Y1868337D1*
X1458536D1*
X1292246Y1718156D2*
Y1768340D1*
X1268314Y1734902D1*
X1304184D1*
X1322000Y1722964D2*
X1319623Y1720532D1*
X1322000Y1718156D1*
X1324432Y1720532D1*
X1322000Y1722964D1*
X1349433Y1718156D2*
X1373365Y1768340D1*
X1339871D1*
X1388804Y1768396D2*
Y1718156D1*
X1412735Y1751649D2*
X1388804Y1727717D1*
X1398365Y1737279D2*
X1415112Y1718156D1*
X1481584Y1756402D2*
Y1758779D1*
X1483961Y1763587D1*
X1486337Y1765964D1*
X1491146Y1768340D1*
X1500707D1*
X1505461Y1765964D1*
X1507837Y1763587D1*
X1510269Y1758779D1*
Y1754026D1*
X1507837Y1749217D1*
X1503084Y1742087D1*
X1479152Y1718156D1*
X1512646D1*
X1528085Y1751649D2*
X1537646Y1718156D1*
X1547208Y1751649D1*
X1556770Y1718156D1*
X1566331Y1751649D1*
X1376110Y1544646D2*
X1397610D1*
X1404795Y1547078D1*
X1407227Y1549454D1*
X1409603Y1554207D1*
Y1559016D1*
X1407227Y1563769D1*
X1404795Y1566201D1*
X1397610Y1568577D1*
X1376110D1*
Y1518337D1*
X1392857Y1544646D2*
X1409603Y1518337D1*
X1429851Y1568522D2*
X1456104D1*
X1441789Y1549399D1*
X1448974D1*
X1453727Y1547022D1*
X1456104Y1544646D1*
X1458536Y1537461D1*
Y1532707D1*
X1456104Y1525522D1*
X1451351Y1520714D1*
X1444166Y1518337D1*
X1436981D1*
X1429851Y1520714D1*
X1427474Y1523146D1*
X1425042Y1527899D1*
X1292246Y1368156D2*
Y1418340D1*
X1268314Y1384902D1*
X1304184D1*
X1322000Y1372964D2*
X1319623Y1370532D1*
X1322000Y1368156D1*
X1324432Y1370532D1*
X1322000Y1372964D1*
X1349433Y1368156D2*
X1373365Y1418340D1*
X1339871D1*
X1388804Y1418396D2*
Y1368156D1*
X1412735Y1401649D2*
X1388804Y1377717D1*
X1398365Y1387279D2*
X1415112Y1368156D1*
X1481584Y1406402D2*
Y1408779D1*
X1483961Y1413587D1*
X1486337Y1415964D1*
X1491146Y1418340D1*
X1500707D1*
X1505461Y1415964D1*
X1507837Y1413587D1*
X1510269Y1408779D1*
Y1404026D1*
X1507837Y1399217D1*
X1503084Y1392087D1*
X1479152Y1368156D1*
X1512646D1*
X1528085Y1401649D2*
X1537646Y1368156D1*
X1547208Y1401649D1*
X1556770Y1368156D1*
X1566331Y1401649D1*
X1374922Y1194646D2*
X1396421D1*
X1403606Y1197078D1*
X1406038Y1199454D1*
X1408415Y1204207D1*
Y1209016D1*
X1406038Y1213769D1*
X1403606Y1216201D1*
X1396421Y1218577D1*
X1374922D1*
Y1168337D1*
X1391668Y1194646D2*
X1408415Y1168337D1*
X1447786D2*
Y1218522D1*
X1423854Y1185084D1*
X1459724D1*
X1292246Y1018156D2*
Y1068340D1*
X1268314Y1034902D1*
X1304184D1*
X1322000Y1022964D2*
X1319623Y1020532D1*
X1322000Y1018156D1*
X1324432Y1020532D1*
X1322000Y1022964D1*
X1349433Y1018156D2*
X1373365Y1068340D1*
X1339871D1*
X1388804Y1068396D2*
Y1018156D1*
X1412735Y1051649D2*
X1388804Y1027717D1*
X1398365Y1037279D2*
X1415112Y1018156D1*
X1481584Y1056402D2*
Y1058779D1*
X1483961Y1063587D1*
X1486337Y1065964D1*
X1491146Y1068340D1*
X1500707D1*
X1505461Y1065964D1*
X1507837Y1063587D1*
X1510269Y1058779D1*
Y1054026D1*
X1507837Y1049217D1*
X1503084Y1042087D1*
X1479152Y1018156D1*
X1512646D1*
X1528085Y1051649D2*
X1537646Y1018156D1*
X1547208Y1051649D1*
X1556770Y1018156D1*
X1566331Y1051649D1*
X2558504Y2084771D2*
Y2106271D1*
X2556072Y2113456D1*
X2553695Y2115888D1*
X2548942Y2118265D1*
X2544134D1*
X2539381Y2115888D1*
X2536949Y2113456D1*
X2534572Y2106271D1*
Y2084771D1*
X2584812D1*
X2558504Y2101518D2*
X2584812Y2118265D1*
X2534627Y2162389D2*
Y2138512D1*
X2556127Y2136136D1*
X2553751Y2138512D1*
X2551319Y2145697D1*
Y2152827D1*
X2553751Y2160012D1*
X2558504Y2164821D1*
X2565689Y2167197D1*
X2570442D1*
X2577627Y2164821D1*
X2582436Y2160012D1*
X2584812Y2152827D1*
Y2145697D1*
X2582436Y2138512D1*
X2580004Y2136136D1*
X2575251Y2133704D1*
X2694371Y2071055D2*
X2691939Y2075863D1*
X2684809Y2083048D1*
X2734994D1*
X2696747Y2100920D2*
X2694371D1*
X2689562Y2103296D1*
X2687186Y2105673D1*
X2684809Y2110481D1*
Y2120043D1*
X2687186Y2124796D1*
X2689562Y2127173D1*
X2694371Y2129604D1*
X2699124D1*
X2703932Y2127173D1*
X2711062Y2122419D1*
X2734994Y2098488D1*
Y2131981D1*
X2684809Y2161790D2*
X2687186Y2154605D1*
X2694371Y2149797D1*
X2706309Y2147420D1*
X2713494D1*
X2725432Y2149797D1*
X2732617Y2154605D1*
X2734994Y2161790D1*
Y2166544D1*
X2732617Y2173729D1*
X2725432Y2178482D1*
X2713494Y2180914D1*
X2706309D1*
X2694371Y2178482D1*
X2687186Y2173729D1*
X2684809Y2166544D1*
Y2161790D1*
X2694371Y2178482D2*
X2725432Y2149797D1*
X2558504Y1533590D2*
Y1555090D1*
X2556072Y1562275D1*
X2553695Y1564707D1*
X2548942Y1567084D1*
X2544134D1*
X2539381Y1564707D1*
X2536949Y1562275D1*
X2534572Y1555090D1*
Y1533590D1*
X2584812D1*
X2558504Y1550337D2*
X2584812Y1567084D1*
Y1592084D2*
X2534627Y1616016D1*
Y1582523D1*
X2694371Y1519874D2*
X2691939Y1524682D1*
X2684809Y1531867D1*
X2734994D1*
X2696747Y1549738D2*
X2694371D1*
X2689562Y1552115D1*
X2687186Y1554492D1*
X2684809Y1559300D1*
Y1568862D1*
X2687186Y1573615D1*
X2689562Y1575991D1*
X2694371Y1578423D1*
X2699124D1*
X2703932Y1575991D1*
X2711062Y1571238D1*
X2734994Y1547307D1*
Y1580800D1*
X2684809Y1610609D2*
X2687186Y1603424D1*
X2694371Y1598616D1*
X2706309Y1596239D1*
X2713494D1*
X2725432Y1598616D1*
X2732617Y1603424D1*
X2734994Y1610609D1*
Y1615362D1*
X2732617Y1622547D1*
X2725432Y1627301D1*
X2713494Y1629732D1*
X2706309D1*
X2694371Y1627301D1*
X2687186Y1622547D1*
X2684809Y1615362D1*
Y1610609D1*
X2694371Y1627301D2*
X2725432Y1598616D1*
X1890315Y2167170D2*
Y2145670D1*
X1892747Y2138485D1*
X1895123Y2136053D1*
X1899877Y2133676D1*
X1904685D1*
X1909438Y2136053D1*
X1911870Y2138485D1*
X1914247Y2145670D1*
Y2167170D1*
X1864007D1*
X1890315Y2150423D2*
X1864007Y2133676D1*
X1914191Y2106299D2*
X1911815Y2113429D1*
X1907062Y2115860D1*
X1902253D1*
X1897500Y2113429D1*
X1895068Y2108675D1*
X1892692Y2099114D1*
X1890315Y2091929D1*
X1885507Y2087176D1*
X1880753Y2084799D1*
X1873568D1*
X1868815Y2087176D1*
X1866383Y2089552D1*
X1864007Y2096737D1*
Y2106299D1*
X1866383Y2113429D1*
X1868815Y2115860D1*
X1873568Y2118237D1*
X1880753D1*
X1885507Y2115860D1*
X1890315Y2111052D1*
X1892692Y2103922D1*
X1895068Y2094361D1*
X1897500Y2089552D1*
X1902253Y2087176D1*
X1907062D1*
X1911815Y2089552D1*
X1914191Y2096737D1*
Y2106299D1*
X1713825Y2175451D2*
X1764010D1*
X1730572Y2199383D1*
Y2163513D1*
X1718633Y2145697D2*
X1716202Y2148074D1*
X1713825Y2145697D1*
X1716202Y2143266D1*
X1718633Y2145697D1*
X1713825Y2118265D2*
X1764010Y2094333D1*
Y2127826D1*
X1764065Y2078894D2*
X1713825D1*
X1747318Y2054962D2*
X1723387Y2078894D1*
X1732948Y2069332D2*
X1713825Y2052585D1*
X2210252Y1771971D2*
X2231752D1*
X2238937Y1774403D1*
X2241369Y1776780D1*
X2243745Y1781533D1*
Y1786341D1*
X2241369Y1791094D1*
X2238937Y1793526D1*
X2231752Y1795903D1*
X2210252D1*
Y1745663D1*
X2226998Y1771971D2*
X2243745Y1745663D1*
X2259184Y1786286D2*
X2263993Y1788718D1*
X2271178Y1795848D1*
Y1745663D1*
X2300987Y1795848D2*
X2293802Y1793471D1*
X2288994Y1786286D1*
X2286617Y1774348D1*
Y1767163D1*
X2288994Y1755224D1*
X2293802Y1748039D1*
X2300987Y1745663D1*
X2305740D1*
X2312925Y1748039D1*
X2317679Y1755224D1*
X2320110Y1767163D1*
Y1774348D1*
X2317679Y1786286D1*
X2312925Y1793471D1*
X2305740Y1795848D1*
X2300987D1*
X2317679Y1786286D2*
X2288994Y1755224D1*
X2246712Y1595481D2*
Y1645666D1*
X2222780Y1612228D1*
X2258650D1*
X2283651Y1595481D2*
X2307582Y1645666D1*
X2274089D1*
X1255033Y2787087D2*
X1276533D1*
X1283718Y2789519D1*
X1286150Y2791895D1*
X1288527Y2796648D1*
Y2801457D1*
X1286150Y2806210D1*
X1283718Y2808642D1*
X1276533Y2811018D1*
X1255033D1*
Y2760778D1*
X1271780Y2787087D2*
X1288527Y2760778D1*
X1303966Y2801401D2*
X1308774Y2803833D1*
X1315959Y2810963D1*
Y2760778D1*
X1331399Y2801401D2*
X1336207Y2803833D1*
X1343392Y2810963D1*
Y2760778D1*
X1100083Y2511220D2*
X1104892Y2513652D1*
X1112077Y2520781D1*
Y2470597D1*
X1141886Y2520781D2*
X1134701Y2518405D1*
X1129893Y2511220D1*
X1127516Y2499281D1*
Y2492096D1*
X1129893Y2480158D1*
X1134701Y2472973D1*
X1141886Y2470597D1*
X1146639D1*
X1153824Y2472973D1*
X1158577Y2480158D1*
X1161009Y2492096D1*
Y2499281D1*
X1158577Y2511220D1*
X1153824Y2518405D1*
X1146639Y2520781D1*
X1141886D1*
X1158577Y2511220D2*
X1129893Y2480158D1*
X1176449Y2520837D2*
Y2470597D1*
X1200380Y2504090D2*
X1176449Y2480158D1*
X1186010Y2489720D2*
X1202757Y2470597D1*
X1283544Y2520837D2*
Y2470597D1*
X1266797Y2520837D2*
X1300290D1*
X1315730D2*
Y2470597D1*
X1349223Y2520837D2*
Y2470597D1*
X1315730Y2496905D2*
X1349223D1*
X1395724Y2520837D2*
X1364662D1*
Y2470597D1*
X1395724D1*
X1364662Y2496905D2*
X1383785D1*
X1411163D2*
X1432663D1*
X1439848Y2499337D1*
X1442280Y2501713D1*
X1444656Y2506467D1*
Y2511275D1*
X1442280Y2516028D1*
X1439848Y2518460D1*
X1432663Y2520837D1*
X1411163D1*
Y2470597D1*
X1427910Y2496905D2*
X1444656Y2470597D1*
X1498342D2*
Y2520837D1*
X1479219Y2470597D1*
X1460095Y2520837D1*
Y2470597D1*
X2483345Y2803833D2*
X2478592Y2808642D1*
X2471407Y2811018D1*
X2461845D1*
X2454660Y2808642D1*
X2449852Y2803833D1*
Y2799080D1*
X2452284Y2794272D1*
X2454660Y2791895D1*
X2459414Y2789519D1*
X2473784Y2784710D1*
X2478592Y2782333D1*
X2480969Y2779902D1*
X2483345Y2775148D1*
Y2767963D1*
X2478592Y2763210D1*
X2471407Y2760778D1*
X2461845D1*
X2454660Y2763210D1*
X2449852Y2767963D1*
X2498785Y2801401D2*
X2503593Y2803833D1*
X2510778Y2810963D1*
Y2760778D1*
X2345364Y2494528D2*
X2366919D1*
X2374049Y2496905D1*
X2376481Y2499337D1*
X2378857Y2504090D1*
Y2511275D1*
X2376481Y2516028D1*
X2374049Y2518460D1*
X2366919Y2520837D1*
X2345364D1*
Y2470597D1*
X2394297Y2520837D2*
X2406290Y2470597D1*
X2418228Y2520837D1*
X2430166Y2470597D1*
X2442160Y2520837D1*
X2457599Y2462306D2*
X2503031D1*
X2551963Y2513652D2*
X2547210Y2518460D1*
X2540025Y2520837D1*
X2530463D1*
X2523278Y2518460D1*
X2518470Y2513652D1*
Y2508898D1*
X2520902Y2504090D1*
X2523278Y2501713D1*
X2528032Y2499337D1*
X2542402Y2494528D1*
X2547210Y2492152D1*
X2549587Y2489720D1*
X2551963Y2484967D1*
Y2477782D1*
X2547210Y2473028D1*
X2540025Y2470597D1*
X2530463D1*
X2523278Y2473028D1*
X2518470Y2477782D1*
X2567403Y2520837D2*
X2579396Y2470597D1*
X2591334Y2520837D1*
X2603272Y2470597D1*
X2615266Y2520837D1*
X460438Y1599684D2*
X496308D1*
X503493Y1602061D1*
X508246Y1606869D1*
X510678Y1614054D1*
Y1618807D1*
X508246Y1625992D1*
X503493Y1630801D1*
X496308Y1633177D1*
X460438D1*
X470055Y1648617D2*
X467623Y1653425D1*
X460494Y1660610D1*
X510678D1*
X1218630Y763774D2*
Y727904D1*
X1221006Y720719D1*
X1225815Y715966D1*
X1233000Y713534D1*
X1237753D1*
X1244938Y715966D1*
X1249746Y720719D1*
X1252123Y727904D1*
Y763774D1*
X1269994Y751781D2*
Y754157D1*
X1272371Y758966D1*
X1274747Y761342D1*
X1279556Y763719D1*
X1289117D1*
X1293870Y761342D1*
X1296247Y758966D1*
X1298679Y754157D1*
Y749404D1*
X1296247Y744596D1*
X1291494Y737466D1*
X1267562Y713534D1*
X1301055D1*
X1809181Y763774D2*
Y727904D1*
X1811557Y720719D1*
X1816366Y715966D1*
X1823551Y713534D1*
X1828304D1*
X1835489Y715966D1*
X1840297Y720719D1*
X1842674Y727904D1*
Y763774D1*
X1862922Y763719D2*
X1889175D1*
X1874860Y744596D1*
X1882045D1*
X1886798Y742219D1*
X1889175Y739843D1*
X1891607Y732658D1*
Y727904D1*
X1889175Y720719D1*
X1884422Y715911D1*
X1877237Y713534D1*
X1870052D1*
X1862922Y715911D1*
X1860545Y718343D1*
X1858113Y723096D1*
X2398544Y763774D2*
Y727904D1*
X2400920Y720719D1*
X2405729Y715966D1*
X2412914Y713534D1*
X2417667D1*
X2424852Y715966D1*
X2429660Y720719D1*
X2432037Y727904D1*
Y763774D1*
X2471408Y713534D2*
Y763719D1*
X2447476Y730281D1*
X2483346D1*
X2990283Y763774D2*
Y727904D1*
X2992660Y720719D1*
X2997468Y715966D1*
X3004653Y713534D1*
X3009406D1*
X3016591Y715966D1*
X3021400Y720719D1*
X3023776Y727904D1*
Y763774D1*
X3067901Y763719D2*
X3044024D1*
X3041648Y742219D1*
X3044024Y744596D1*
X3051209Y747028D1*
X3058339D1*
X3065524Y744596D1*
X3070332Y739843D1*
X3072709Y732658D1*
Y727904D1*
X3070332Y720719D1*
X3065524Y715911D1*
X3058339Y713534D1*
X3051209D1*
X3044024Y715911D1*
X3041648Y718343D1*
X3039216Y723096D1*
X2435428Y2165981D2*
X2399558D1*
X2392373Y2163605D1*
X2387620Y2158796D1*
X2385188Y2151611D1*
Y2146858D1*
X2387620Y2139673D1*
X2392373Y2134865D1*
X2399558Y2132488D1*
X2435428D1*
X2428243Y2088364D2*
X2432996Y2090740D1*
X2435373Y2097925D1*
Y2102679D1*
X2432996Y2109864D1*
X2425811Y2114672D1*
X2413873Y2117049D1*
X2401934D1*
X2392373Y2114672D1*
X2387564Y2109864D1*
X2385188Y2102679D1*
Y2100302D1*
X2387564Y2093172D1*
X2392373Y2088364D1*
X2399558Y2085987D1*
X2401934D1*
X2409120Y2088364D1*
X2413873Y2093172D1*
X2416249Y2100302D1*
Y2102679D1*
X2413873Y2109864D1*
X2409120Y2114672D1*
X2401934Y2117049D1*
X1848551Y2811018D2*
Y2775148D1*
X1850927Y2767963D1*
X1855736Y2763210D1*
X1862921Y2760778D1*
X1867674D1*
X1874859Y2763210D1*
X1879668Y2767963D1*
X1882044Y2775148D1*
Y2811018D1*
X1907045Y2760778D2*
X1930977Y2810963D1*
X1897483D1*
X1853985Y2520837D2*
X1822869D1*
Y2470597D1*
Y2496905D2*
X1841992D1*
X1907726Y2470597D2*
X1888548Y2520837D1*
X1869425Y2470597D1*
X1876610Y2487343D2*
X1900541D1*
X1956659Y2520837D2*
Y2470597D1*
X1923166Y2520837D1*
Y2470597D1*
M02*
